<mxfile host="app.diagrams.net" modified="2024-06-02T17:59:51.480Z" agent="Mozilla/5.0 (Windows NT 10.0; Win64; x64) AppleWebKit/537.36 (KHTML, like Gecko) Chrome/122.0.0.0 Safari/537.36" etag="3FMK9INGF69zIBmO8HhQ" version="24.4.13" type="device" pages="2">
  <diagram name="Страница — 1" id="I5OvPwEaKusNIWEmFRjT">
    <mxGraphModel dx="2382" dy="1216" grid="1" gridSize="10" guides="1" tooltips="1" connect="1" arrows="1" fold="1" page="1" pageScale="1" pageWidth="827" pageHeight="1169" math="0" shadow="0">
      <root>
        <mxCell id="0" />
        <mxCell id="1" parent="0" />
        <mxCell id="Ppeax3_3dTHggxRKk9m_-1" value="&lt;span lang=&quot;UK&quot; style=&quot;white-space: normal ; font-size: 18px ; line-height: 15.6933px&quot;&gt;&lt;font style=&quot;vertical-align: inherit&quot;&gt;&lt;font style=&quot;vertical-align: inherit&quot;&gt;Обробка даних про споживачів&lt;/font&gt;&lt;/font&gt;&lt;/span&gt;" style="rounded=0;whiteSpace=wrap;html=1;fontSize=18;fontFamily=Tahoma;fontStyle=0" vertex="1" parent="1">
          <mxGeometry x="250" y="337.5" width="250" height="160" as="geometry" />
        </mxCell>
        <mxCell id="Ppeax3_3dTHggxRKk9m_-2" value="" style="endArrow=classic;html=1;fontFamily=Tahoma;fontSize=18;entryX=0;entryY=0.25;entryDx=0;entryDy=0;" edge="1" parent="1">
          <mxGeometry width="50" height="50" relative="1" as="geometry">
            <mxPoint x="80" y="385.5" as="sourcePoint" />
            <mxPoint x="250" y="385" as="targetPoint" />
          </mxGeometry>
        </mxCell>
        <mxCell id="Ppeax3_3dTHggxRKk9m_-3" value="&lt;font style=&quot;vertical-align: inherit&quot;&gt;&lt;font style=&quot;vertical-align: inherit&quot;&gt;База даних&amp;nbsp;dwelling&lt;/font&gt;&lt;/font&gt;" style="text;html=1;align=center;verticalAlign=middle;resizable=0;points=[];labelBackgroundColor=#ffffff;fontSize=18;fontFamily=Tahoma;" connectable="0" vertex="1" parent="Ppeax3_3dTHggxRKk9m_-2">
          <mxGeometry x="0.2706" relative="1" as="geometry">
            <mxPoint x="-58" y="-18" as="offset" />
          </mxGeometry>
        </mxCell>
        <mxCell id="Ppeax3_3dTHggxRKk9m_-4" value="" style="endArrow=classic;html=1;fontFamily=Tahoma;fontSize=18;entryX=0;entryY=0.25;entryDx=0;entryDy=0;" edge="1" parent="1">
          <mxGeometry width="50" height="50" relative="1" as="geometry">
            <mxPoint x="80" y="448" as="sourcePoint" />
            <mxPoint x="250" y="447.5" as="targetPoint" />
          </mxGeometry>
        </mxCell>
        <mxCell id="Ppeax3_3dTHggxRKk9m_-5" value="Оновлені дані &lt;br&gt;про споживача" style="text;html=1;align=center;verticalAlign=middle;resizable=0;points=[];labelBackgroundColor=#ffffff;fontSize=18;fontFamily=Tahoma;" connectable="0" vertex="1" parent="Ppeax3_3dTHggxRKk9m_-4">
          <mxGeometry x="0.2706" relative="1" as="geometry">
            <mxPoint x="-48" y="-17.68" as="offset" />
          </mxGeometry>
        </mxCell>
        <mxCell id="Ppeax3_3dTHggxRKk9m_-6" value="" style="endArrow=classic;html=1;fontFamily=Tahoma;fontSize=18;entryX=0;entryY=0.25;entryDx=0;entryDy=0;" edge="1" parent="1">
          <mxGeometry width="50" height="50" relative="1" as="geometry">
            <mxPoint x="382.5" y="207.5" as="sourcePoint" />
            <mxPoint x="381.99999999999955" y="337.5" as="targetPoint" />
          </mxGeometry>
        </mxCell>
        <mxCell id="Ppeax3_3dTHggxRKk9m_-7" value="максимальна &lt;br&gt;кількість записів у БД" style="text;html=1;align=center;verticalAlign=middle;resizable=0;points=[];labelBackgroundColor=#ffffff;fontSize=18;fontFamily=Tahoma;rotation=-90;" connectable="0" vertex="1" parent="Ppeax3_3dTHggxRKk9m_-6">
          <mxGeometry x="0.2706" relative="1" as="geometry">
            <mxPoint x="-28" y="-53" as="offset" />
          </mxGeometry>
        </mxCell>
        <mxCell id="Ppeax3_3dTHggxRKk9m_-8" value="" style="endArrow=classic;html=1;fontFamily=Tahoma;fontSize=18;entryX=0;entryY=0.25;entryDx=0;entryDy=0;" edge="1" parent="1">
          <mxGeometry width="50" height="50" relative="1" as="geometry">
            <mxPoint x="300" y="660" as="sourcePoint" />
            <mxPoint x="300" y="497.5" as="targetPoint" />
          </mxGeometry>
        </mxCell>
        <mxCell id="Ppeax3_3dTHggxRKk9m_-9" value="ПП &quot;Житла&quot;" style="text;html=1;align=center;verticalAlign=middle;resizable=0;points=[];labelBackgroundColor=#ffffff;fontSize=18;fontFamily=Tahoma;rotation=-90;" connectable="0" vertex="1" parent="Ppeax3_3dTHggxRKk9m_-8">
          <mxGeometry x="0.2706" relative="1" as="geometry">
            <mxPoint x="-20" y="28" as="offset" />
          </mxGeometry>
        </mxCell>
        <mxCell id="Ppeax3_3dTHggxRKk9m_-10" value="" style="endArrow=classic;html=1;fontFamily=Tahoma;fontSize=18;entryX=0;entryY=0.25;entryDx=0;entryDy=0;" edge="1" parent="1">
          <mxGeometry width="50" height="50" relative="1" as="geometry">
            <mxPoint x="350" y="660" as="sourcePoint" />
            <mxPoint x="350" y="497.5" as="targetPoint" />
          </mxGeometry>
        </mxCell>
        <mxCell id="Ppeax3_3dTHggxRKk9m_-11" value="Сервер БД MySQL&amp;nbsp;" style="text;html=1;align=center;verticalAlign=middle;resizable=0;points=[];labelBackgroundColor=#ffffff;fontSize=18;fontFamily=Tahoma;rotation=-90;horizontal=1;" connectable="0" vertex="1" parent="Ppeax3_3dTHggxRKk9m_-10">
          <mxGeometry x="0.2706" relative="1" as="geometry">
            <mxPoint x="-20" y="30.5" as="offset" />
          </mxGeometry>
        </mxCell>
        <mxCell id="Ppeax3_3dTHggxRKk9m_-12" value="" style="endArrow=classic;html=1;fontFamily=Tahoma;fontSize=18;entryX=0;entryY=0.25;entryDx=0;entryDy=0;" edge="1" parent="1">
          <mxGeometry width="50" height="50" relative="1" as="geometry">
            <mxPoint x="401" y="660" as="sourcePoint" />
            <mxPoint x="401" y="497.5" as="targetPoint" />
          </mxGeometry>
        </mxCell>
        <mxCell id="Ppeax3_3dTHggxRKk9m_-13" value="Framework .NET" style="text;html=1;align=center;verticalAlign=middle;resizable=0;points=[];labelBackgroundColor=#ffffff;fontSize=18;fontFamily=Tahoma;rotation=-90;" connectable="0" vertex="1" parent="Ppeax3_3dTHggxRKk9m_-12">
          <mxGeometry x="0.2706" relative="1" as="geometry">
            <mxPoint x="29" y="30.5" as="offset" />
          </mxGeometry>
        </mxCell>
        <mxCell id="Ppeax3_3dTHggxRKk9m_-14" value="" style="endArrow=classic;html=1;fontFamily=Tahoma;fontSize=18;entryX=0;entryY=0.25;entryDx=0;entryDy=0;" edge="1" parent="1">
          <mxGeometry width="50" height="50" relative="1" as="geometry">
            <mxPoint x="500" y="417.3299999999999" as="sourcePoint" />
            <mxPoint x="670" y="416.8299999999999" as="targetPoint" />
          </mxGeometry>
        </mxCell>
        <mxCell id="Ppeax3_3dTHggxRKk9m_-15" value="Оновлена БД&lt;div&gt;dwelling&amp;nbsp;&lt;/div&gt;" style="text;html=1;align=center;verticalAlign=middle;resizable=0;points=[];labelBackgroundColor=#ffffff;fontSize=18;fontFamily=Tahoma;" connectable="0" vertex="1" parent="Ppeax3_3dTHggxRKk9m_-14">
          <mxGeometry x="0.2706" relative="1" as="geometry">
            <mxPoint x="-17" y="-40" as="offset" />
          </mxGeometry>
        </mxCell>
        <mxCell id="Ppeax3_3dTHggxRKk9m_-16" value="A-0" style="text;html=1;strokeColor=none;fillColor=none;align=center;verticalAlign=middle;whiteSpace=wrap;rounded=0;fontFamily=Tahoma;fontSize=18;" vertex="1" parent="1">
          <mxGeometry x="460" y="510.5" width="40" height="20" as="geometry" />
        </mxCell>
        <mxCell id="Ppeax3_3dTHggxRKk9m_-17" value="0" style="text;html=1;strokeColor=none;fillColor=none;align=center;verticalAlign=middle;whiteSpace=wrap;rounded=0;fontFamily=Tahoma;fontSize=18;" vertex="1" parent="1">
          <mxGeometry x="453" y="467.5" width="40" height="20" as="geometry" />
        </mxCell>
        <mxCell id="Ppeax3_3dTHggxRKk9m_-18" value="" style="endArrow=classic;html=1;fontFamily=Tahoma;fontSize=18;entryX=0;entryY=0.25;entryDx=0;entryDy=0;" edge="1" parent="1">
          <mxGeometry width="50" height="50" relative="1" as="geometry">
            <mxPoint x="453" y="660" as="sourcePoint" />
            <mxPoint x="453" y="497.5" as="targetPoint" />
          </mxGeometry>
        </mxCell>
        <mxCell id="Ppeax3_3dTHggxRKk9m_-19" value="Співробітник компанії" style="text;html=1;align=center;verticalAlign=middle;resizable=0;points=[];labelBackgroundColor=#ffffff;fontSize=18;fontFamily=Tahoma;rotation=-90;" connectable="0" vertex="1" parent="Ppeax3_3dTHggxRKk9m_-18">
          <mxGeometry x="0.2706" relative="1" as="geometry">
            <mxPoint x="-70.33" y="40.17" as="offset" />
          </mxGeometry>
        </mxCell>
        <mxCell id="Ppeax3_3dTHggxRKk9m_-20" value="&lt;span style=&quot;color: rgb(51 , 0 , 102) ; font-size: 20px&quot;&gt;Точка зору співробітника компанії&lt;/span&gt;" style="text;html=1;strokeColor=none;fillColor=none;align=center;verticalAlign=middle;whiteSpace=wrap;rounded=0;" vertex="1" parent="1">
          <mxGeometry x="200" y="57.5" width="327" height="20" as="geometry" />
        </mxCell>
        <mxCell id="Ppeax3_3dTHggxRKk9m_-21" value="&lt;span lang=&quot;UK&quot; style=&quot;white-space: normal ; font-size: 18px ; line-height: 15.6933px&quot;&gt;Обробка даних про споживачів&lt;/span&gt;" style="rounded=0;whiteSpace=wrap;html=1;fontSize=18;fontFamily=Tahoma;fontStyle=0" vertex="1" parent="1">
          <mxGeometry x="265.3299999999999" y="1010" width="250" height="180" as="geometry" />
        </mxCell>
        <mxCell id="Ppeax3_3dTHggxRKk9m_-22" value="" style="endArrow=classic;html=1;fontFamily=Tahoma;fontSize=18;entryX=0;entryY=0.25;entryDx=0;entryDy=0;" edge="1" parent="1">
          <mxGeometry width="50" height="50" relative="1" as="geometry">
            <mxPoint x="95" y="1090" as="sourcePoint" />
            <mxPoint x="265.3299999999999" y="1090" as="targetPoint" />
          </mxGeometry>
        </mxCell>
        <mxCell id="Ppeax3_3dTHggxRKk9m_-23" value="" style="endArrow=classic;html=1;fontFamily=Tahoma;fontSize=18;entryX=0;entryY=0.25;entryDx=0;entryDy=0;" edge="1" parent="1">
          <mxGeometry width="50" height="50" relative="1" as="geometry">
            <mxPoint x="397.5" y="820" as="sourcePoint" />
            <mxPoint x="397.8299999999999" y="1010" as="targetPoint" />
          </mxGeometry>
        </mxCell>
        <mxCell id="Ppeax3_3dTHggxRKk9m_-24" value="&lt;div&gt;Шаблон&lt;/div&gt;&lt;div&gt;Template MS Word&lt;/div&gt;" style="text;html=1;align=center;verticalAlign=middle;resizable=0;points=[];labelBackgroundColor=#ffffff;fontSize=18;fontFamily=Tahoma;rotation=-90;" connectable="0" vertex="1" parent="Ppeax3_3dTHggxRKk9m_-23">
          <mxGeometry x="0.2706" relative="1" as="geometry">
            <mxPoint x="-23" y="-21" as="offset" />
          </mxGeometry>
        </mxCell>
        <mxCell id="Ppeax3_3dTHggxRKk9m_-25" value="" style="endArrow=classic;html=1;fontFamily=Tahoma;fontSize=18;entryX=0;entryY=0.25;entryDx=0;entryDy=0;" edge="1" parent="1">
          <mxGeometry width="50" height="50" relative="1" as="geometry">
            <mxPoint x="303" y="1352.5" as="sourcePoint" />
            <mxPoint x="303" y="1190" as="targetPoint" />
          </mxGeometry>
        </mxCell>
        <mxCell id="Ppeax3_3dTHggxRKk9m_-26" value="" style="endArrow=classic;html=1;fontFamily=Tahoma;fontSize=18;entryX=0;entryY=0.25;entryDx=0;entryDy=0;" edge="1" parent="1">
          <mxGeometry width="50" height="50" relative="1" as="geometry">
            <mxPoint x="340" y="1351.25" as="sourcePoint" />
            <mxPoint x="340" y="1188.75" as="targetPoint" />
          </mxGeometry>
        </mxCell>
        <mxCell id="Ppeax3_3dTHggxRKk9m_-27" value="Серевер БД MySQL&amp;nbsp;" style="text;html=1;align=center;verticalAlign=middle;resizable=0;points=[];labelBackgroundColor=#ffffff;fontSize=18;fontFamily=Tahoma;rotation=-90;" connectable="0" vertex="1" parent="Ppeax3_3dTHggxRKk9m_-26">
          <mxGeometry x="0.2706" relative="1" as="geometry">
            <mxPoint x="-19" y="31" as="offset" />
          </mxGeometry>
        </mxCell>
        <mxCell id="Ppeax3_3dTHggxRKk9m_-28" value="" style="endArrow=classic;html=1;fontFamily=Tahoma;fontSize=18;entryX=0;entryY=0.25;entryDx=0;entryDy=0;" edge="1" parent="1">
          <mxGeometry width="50" height="50" relative="1" as="geometry">
            <mxPoint x="374.49999999999983" y="1352.5" as="sourcePoint" />
            <mxPoint x="374.49999999999983" y="1190" as="targetPoint" />
          </mxGeometry>
        </mxCell>
        <mxCell id="Ppeax3_3dTHggxRKk9m_-29" value="Framework .NET" style="text;html=1;align=center;verticalAlign=middle;resizable=0;points=[];labelBackgroundColor=#ffffff;fontSize=18;fontFamily=Tahoma;rotation=-90;" connectable="0" vertex="1" parent="Ppeax3_3dTHggxRKk9m_-28">
          <mxGeometry x="0.2706" relative="1" as="geometry">
            <mxPoint x="-20" y="30.5" as="offset" />
          </mxGeometry>
        </mxCell>
        <mxCell id="Ppeax3_3dTHggxRKk9m_-30" value="" style="endArrow=classic;html=1;fontFamily=Tahoma;fontSize=18;" edge="1" parent="1">
          <mxGeometry width="50" height="50" relative="1" as="geometry">
            <mxPoint x="515.3299999999999" y="1030.83" as="sourcePoint" />
            <mxPoint x="763" y="1030" as="targetPoint" />
          </mxGeometry>
        </mxCell>
        <mxCell id="Ppeax3_3dTHggxRKk9m_-31" value="інформація про адресу та площу&lt;div&gt;&amp;nbsp;житла за заданим прізвищем&lt;br&gt;&lt;/div&gt;" style="text;html=1;align=center;verticalAlign=middle;resizable=0;points=[];labelBackgroundColor=#ffffff;fontSize=18;fontFamily=Tahoma;" connectable="0" vertex="1" parent="Ppeax3_3dTHggxRKk9m_-30">
          <mxGeometry x="0.2706" relative="1" as="geometry">
            <mxPoint x="-22" y="-30" as="offset" />
          </mxGeometry>
        </mxCell>
        <mxCell id="Ppeax3_3dTHggxRKk9m_-32" value="B-0" style="text;html=1;strokeColor=none;fillColor=none;align=center;verticalAlign=middle;whiteSpace=wrap;rounded=0;fontFamily=Tahoma;fontSize=18;" vertex="1" parent="1">
          <mxGeometry x="486.99999999999994" y="1200" width="40" height="20" as="geometry" />
        </mxCell>
        <mxCell id="Ppeax3_3dTHggxRKk9m_-33" value="0" style="text;html=1;strokeColor=none;fillColor=none;align=center;verticalAlign=middle;whiteSpace=wrap;rounded=0;fontFamily=Tahoma;fontSize=18;" vertex="1" parent="1">
          <mxGeometry x="468.3299999999999" y="1160" width="40" height="20" as="geometry" />
        </mxCell>
        <mxCell id="Ppeax3_3dTHggxRKk9m_-34" value="" style="endArrow=classic;html=1;fontFamily=Tahoma;fontSize=18;entryX=0;entryY=0.25;entryDx=0;entryDy=0;" edge="1" parent="1">
          <mxGeometry width="50" height="50" relative="1" as="geometry">
            <mxPoint x="420" y="1352.5" as="sourcePoint" />
            <mxPoint x="420" y="1190" as="targetPoint" />
          </mxGeometry>
        </mxCell>
        <mxCell id="Ppeax3_3dTHggxRKk9m_-35" value="Замовник програмного&lt;br&gt;&amp;nbsp;забезпечення" style="text;html=1;align=center;verticalAlign=middle;resizable=0;points=[];labelBackgroundColor=#ffffff;fontSize=18;fontFamily=Tahoma;rotation=-90;" connectable="0" vertex="1" parent="Ppeax3_3dTHggxRKk9m_-34">
          <mxGeometry x="0.2706" relative="1" as="geometry">
            <mxPoint x="30" y="41" as="offset" />
          </mxGeometry>
        </mxCell>
        <mxCell id="Ppeax3_3dTHggxRKk9m_-36" value="" style="endArrow=classic;html=1;fontFamily=Tahoma;fontSize=18;" edge="1" parent="1">
          <mxGeometry width="50" height="50" relative="1" as="geometry">
            <mxPoint x="515.33" y="1110.5" as="sourcePoint" />
            <mxPoint x="763.0000000000001" y="1110" as="targetPoint" />
          </mxGeometry>
        </mxCell>
        <mxCell id="Ppeax3_3dTHggxRKk9m_-37" value="&lt;font style=&quot;font-size: 18px;&quot;&gt;інформація про кількість сімей,&amp;nbsp;&lt;/font&gt;&lt;div style=&quot;&quot;&gt;&lt;font style=&quot;font-size: 18px;&quot;&gt;що мають житлову площу,&amp;nbsp;&lt;/font&gt;&lt;/div&gt;&lt;div style=&quot;&quot;&gt;&lt;font style=&quot;font-size: 18px;&quot;&gt;більшу ніж ХХ&lt;/font&gt;&lt;/div&gt;" style="text;html=1;align=center;verticalAlign=middle;resizable=0;points=[];labelBackgroundColor=#ffffff;fontSize=18;fontFamily=Tahoma;" connectable="0" vertex="1" parent="Ppeax3_3dTHggxRKk9m_-36">
          <mxGeometry x="0.2706" relative="1" as="geometry">
            <mxPoint x="-22" y="-40" as="offset" />
          </mxGeometry>
        </mxCell>
        <mxCell id="Ppeax3_3dTHggxRKk9m_-38" value="&lt;span style=&quot;color: rgb(51 , 0 , 102) ; font-size: 20px&quot;&gt;Точка зору замовника програмного забезпеченняї&lt;/span&gt;" style="text;html=1;strokeColor=none;fillColor=none;align=center;verticalAlign=middle;whiteSpace=wrap;rounded=0;" vertex="1" parent="1">
          <mxGeometry x="223" y="760" width="327" height="20" as="geometry" />
        </mxCell>
        <mxCell id="Ppeax3_3dTHggxRKk9m_-39" value="адреса та загальна&lt;div&gt;&amp;nbsp;площа житла&lt;/div&gt;" style="text;html=1;align=center;verticalAlign=middle;resizable=0;points=[];labelBackgroundColor=#ffffff;fontSize=18;fontFamily=Tahoma;" connectable="0" vertex="1" parent="1">
          <mxGeometry x="169.99953287500273" y="1170.0023543150737" as="geometry">
            <mxPoint x="1" y="-45" as="offset" />
          </mxGeometry>
        </mxCell>
        <mxCell id="Ppeax3_3dTHggxRKk9m_-40" value="" style="endArrow=classic;html=1;" edge="1" parent="1">
          <mxGeometry width="50" height="50" relative="1" as="geometry">
            <mxPoint x="90" y="1149" as="sourcePoint" />
            <mxPoint x="265.3299999999999" y="1149" as="targetPoint" />
          </mxGeometry>
        </mxCell>
        <mxCell id="Ppeax3_3dTHggxRKk9m_-41" value="прізвище споживача&amp;nbsp;" style="text;html=1;align=center;verticalAlign=middle;resizable=0;points=[];labelBackgroundColor=#ffffff;fontSize=18;fontFamily=Tahoma;" connectable="0" vertex="1" parent="1">
          <mxGeometry x="189.99953287500284" y="1170.0023543150735" as="geometry">
            <mxPoint x="-30" y="-97" as="offset" />
          </mxGeometry>
        </mxCell>
        <mxCell id="Ppeax3_3dTHggxRKk9m_-42" value="ПП &quot;Житла&quot;" style="text;html=1;align=center;verticalAlign=middle;resizable=0;points=[];labelBackgroundColor=#ffffff;fontSize=18;fontFamily=Tahoma;rotation=-90;" connectable="0" vertex="1" parent="1">
          <mxGeometry x="290" y="1230" as="geometry">
            <mxPoint x="-44" y="-1.9999999999999978" as="offset" />
          </mxGeometry>
        </mxCell>
        <mxCell id="Ppeax3_3dTHggxRKk9m_-43" value="" style="endArrow=classic;html=1;fontFamily=Tahoma;fontSize=18;entryX=0;entryY=0.25;entryDx=0;entryDy=0;" edge="1" parent="1">
          <mxGeometry width="50" height="50" relative="1" as="geometry">
            <mxPoint x="475.33" y="1351.25" as="sourcePoint" />
            <mxPoint x="475.33" y="1188.75" as="targetPoint" />
          </mxGeometry>
        </mxCell>
        <mxCell id="Ppeax3_3dTHggxRKk9m_-44" value="API MS Word" style="text;html=1;align=center;verticalAlign=middle;resizable=0;points=[];labelBackgroundColor=#ffffff;fontSize=18;fontFamily=Tahoma;rotation=-90;" connectable="0" vertex="1" parent="Ppeax3_3dTHggxRKk9m_-43">
          <mxGeometry x="0.2706" relative="1" as="geometry">
            <mxPoint x="-75" y="41" as="offset" />
          </mxGeometry>
        </mxCell>
        <mxCell id="Ppeax3_3dTHggxRKk9m_-45" value="&lt;font style=&quot;vertical-align: inherit&quot;&gt;&lt;font style=&quot;vertical-align: inherit&quot;&gt;База даних&amp;nbsp;dwelling&lt;/font&gt;&lt;/font&gt;" style="text;html=1;align=center;verticalAlign=middle;resizable=0;points=[];labelBackgroundColor=#ffffff;fontSize=18;fontFamily=Tahoma;" connectable="0" vertex="1" parent="1">
          <mxGeometry x="139.99953287500307" y="1000.0023543150736" as="geometry">
            <mxPoint x="29" y="26" as="offset" />
          </mxGeometry>
        </mxCell>
        <mxCell id="Ppeax3_3dTHggxRKk9m_-46" value="" style="endArrow=classic;html=1;fontFamily=Tahoma;fontSize=18;entryX=0;entryY=0.25;entryDx=0;entryDy=0;" edge="1" parent="1">
          <mxGeometry width="50" height="50" relative="1" as="geometry">
            <mxPoint x="95.32999999999993" y="1050.5" as="sourcePoint" />
            <mxPoint x="265.3299999999999" y="1050" as="targetPoint" />
          </mxGeometry>
        </mxCell>
        <mxCell id="Ppeax3_3dTHggxRKk9m_-47" value="" style="endArrow=classic;html=1;fontFamily=Tahoma;fontSize=18;" edge="1" parent="1">
          <mxGeometry width="50" height="50" relative="1" as="geometry">
            <mxPoint x="515.3299999999999" y="1170.5" as="sourcePoint" />
            <mxPoint x="763" y="1170" as="targetPoint" />
          </mxGeometry>
        </mxCell>
        <mxCell id="Ppeax3_3dTHggxRKk9m_-48" value="Звіт із списками відібраних споживачів&lt;br&gt;у форматі MS Word" style="text;html=1;align=center;verticalAlign=middle;resizable=0;points=[];labelBackgroundColor=#ffffff;fontSize=18;fontFamily=Tahoma;" connectable="0" vertex="1" parent="Ppeax3_3dTHggxRKk9m_-47">
          <mxGeometry x="0.2706" relative="1" as="geometry">
            <mxPoint x="15" y="-30" as="offset" />
          </mxGeometry>
        </mxCell>
        <mxCell id="Ppeax3_3dTHggxRKk9m_-49" style="edgeStyle=orthogonalEdgeStyle;rounded=0;orthogonalLoop=1;jettySize=auto;html=1;entryX=0;entryY=0.25;entryDx=0;entryDy=0;curved=1;" edge="1" parent="1" source="Ppeax3_3dTHggxRKk9m_-50" target="Ppeax3_3dTHggxRKk9m_-54">
          <mxGeometry relative="1" as="geometry" />
        </mxCell>
        <mxCell id="Ppeax3_3dTHggxRKk9m_-50" value="&lt;font style=&quot;font-size: 22px&quot;&gt;Перегляд усіх&lt;br&gt;&amp;nbsp;даних&amp;nbsp;&lt;/font&gt;" style="rounded=0;whiteSpace=wrap;html=1;" vertex="1" parent="1">
          <mxGeometry x="180" y="1440" width="170" height="110" as="geometry" />
        </mxCell>
        <mxCell id="Ppeax3_3dTHggxRKk9m_-51" style="edgeStyle=orthogonalEdgeStyle;rounded=0;orthogonalLoop=1;jettySize=auto;html=1;entryX=0;entryY=0.25;entryDx=0;entryDy=0;curved=1;" edge="1" parent="1" source="Ppeax3_3dTHggxRKk9m_-54" target="Ppeax3_3dTHggxRKk9m_-58">
          <mxGeometry relative="1" as="geometry" />
        </mxCell>
        <mxCell id="Ppeax3_3dTHggxRKk9m_-52" style="edgeStyle=none;rounded=0;orthogonalLoop=1;jettySize=auto;html=1;exitX=1;exitY=0.5;exitDx=0;exitDy=0;" edge="1" parent="1" source="Ppeax3_3dTHggxRKk9m_-54">
          <mxGeometry relative="1" as="geometry">
            <mxPoint x="940" y="1625.1428571428573" as="targetPoint" />
          </mxGeometry>
        </mxCell>
        <mxCell id="Ppeax3_3dTHggxRKk9m_-53" value="список споживачів" style="text;html=1;align=center;verticalAlign=middle;resizable=0;points=[];labelBackgroundColor=#ffffff;fontSize=16;" connectable="0" vertex="1" parent="Ppeax3_3dTHggxRKk9m_-52">
          <mxGeometry x="0.1647" y="-6" relative="1" as="geometry">
            <mxPoint y="-19.08" as="offset" />
          </mxGeometry>
        </mxCell>
        <mxCell id="Ppeax3_3dTHggxRKk9m_-54" value="&lt;font style=&quot;font-size: 22px&quot;&gt;вибір споживача&lt;/font&gt;" style="rounded=0;whiteSpace=wrap;html=1;fontSize=20;" vertex="1" parent="1">
          <mxGeometry x="500" y="1570" width="170" height="110" as="geometry" />
        </mxCell>
        <mxCell id="Ppeax3_3dTHggxRKk9m_-55" style="edgeStyle=orthogonalEdgeStyle;rounded=0;orthogonalLoop=1;jettySize=auto;html=1;entryX=0;entryY=0.5;entryDx=0;entryDy=0;curved=1;" edge="1" parent="1" source="Ppeax3_3dTHggxRKk9m_-58" target="Ppeax3_3dTHggxRKk9m_-59">
          <mxGeometry relative="1" as="geometry" />
        </mxCell>
        <mxCell id="Ppeax3_3dTHggxRKk9m_-56" style="edgeStyle=none;rounded=0;orthogonalLoop=1;jettySize=auto;html=1;exitX=1;exitY=0.5;exitDx=0;exitDy=0;" edge="1" parent="1" source="Ppeax3_3dTHggxRKk9m_-58">
          <mxGeometry relative="1" as="geometry">
            <mxPoint x="1250" y="1795" as="targetPoint" />
            <Array as="points" />
          </mxGeometry>
        </mxCell>
        <mxCell id="Ppeax3_3dTHggxRKk9m_-57" value="Кількість сімей&amp;nbsp;що мають житлову&amp;nbsp;&lt;div&gt;площу, більшу ніж ХХ&lt;/div&gt;" style="text;html=1;align=center;verticalAlign=middle;resizable=0;points=[];labelBackgroundColor=#ffffff;fontSize=16;" connectable="0" vertex="1" parent="Ppeax3_3dTHggxRKk9m_-56">
          <mxGeometry x="-0.2442" relative="1" as="geometry">
            <mxPoint x="42" y="-25" as="offset" />
          </mxGeometry>
        </mxCell>
        <mxCell id="Ppeax3_3dTHggxRKk9m_-58" value="&lt;span style=&quot;font-size: 22px&quot;&gt;вибір розміру&amp;nbsp;&lt;/span&gt;&lt;div&gt;&lt;span style=&quot;font-size: 22px&quot;&gt;житлової площі&lt;/span&gt;&lt;/div&gt;" style="rounded=0;whiteSpace=wrap;html=1;" vertex="1" parent="1">
          <mxGeometry x="820" y="1740" width="170" height="110" as="geometry" />
        </mxCell>
        <mxCell id="Ppeax3_3dTHggxRKk9m_-59" value="&lt;font style=&quot;font-size: 22px&quot;&gt;Формування звіту в MS Word&lt;/font&gt;" style="rounded=0;whiteSpace=wrap;html=1;" vertex="1" parent="1">
          <mxGeometry x="1150" y="1880" width="170" height="110" as="geometry" />
        </mxCell>
        <mxCell id="Ppeax3_3dTHggxRKk9m_-60" value="" style="endArrow=classic;html=1;entryX=0.276;entryY=1;entryDx=0;entryDy=0;entryPerimeter=0;" edge="1" parent="1" target="Ppeax3_3dTHggxRKk9m_-50">
          <mxGeometry width="50" height="50" relative="1" as="geometry">
            <mxPoint x="227" y="2250" as="sourcePoint" />
            <mxPoint x="220" y="1550" as="targetPoint" />
            <Array as="points">
              <mxPoint x="227" y="1610" />
            </Array>
          </mxGeometry>
        </mxCell>
        <mxCell id="Ppeax3_3dTHggxRKk9m_-61" value="" style="endArrow=classic;html=1;entryX=0.461;entryY=1.002;entryDx=0;entryDy=0;entryPerimeter=0;" edge="1" parent="1" target="Ppeax3_3dTHggxRKk9m_-50">
          <mxGeometry width="50" height="50" relative="1" as="geometry">
            <mxPoint x="258" y="2250" as="sourcePoint" />
            <mxPoint x="233" y="1560" as="targetPoint" />
          </mxGeometry>
        </mxCell>
        <mxCell id="Ppeax3_3dTHggxRKk9m_-62" value="" style="endArrow=classic;html=1;entryX=0.89;entryY=1.004;entryDx=0;entryDy=0;entryPerimeter=0;" edge="1" parent="1" target="Ppeax3_3dTHggxRKk9m_-50">
          <mxGeometry width="50" height="50" relative="1" as="geometry">
            <mxPoint x="331" y="2250" as="sourcePoint" />
            <mxPoint x="278.3700000000001" y="1570.2200000000003" as="targetPoint" />
          </mxGeometry>
        </mxCell>
        <mxCell id="Ppeax3_3dTHggxRKk9m_-63" value="" style="endArrow=classic;html=1;entryX=-0.013;entryY=0.915;entryDx=0;entryDy=0;entryPerimeter=0;" edge="1" parent="1" target="Ppeax3_3dTHggxRKk9m_-54">
          <mxGeometry width="50" height="50" relative="1" as="geometry">
            <mxPoint x="390" y="1671" as="sourcePoint" />
            <mxPoint x="480" y="1660" as="targetPoint" />
          </mxGeometry>
        </mxCell>
        <mxCell id="Ppeax3_3dTHggxRKk9m_-64" value="" style="endArrow=classic;html=1;entryX=0.196;entryY=1;entryDx=0;entryDy=0;entryPerimeter=0;" edge="1" parent="1" target="Ppeax3_3dTHggxRKk9m_-54">
          <mxGeometry width="50" height="50" relative="1" as="geometry">
            <mxPoint x="230" y="1703" as="sourcePoint" />
            <mxPoint x="510" y="1750" as="targetPoint" />
            <Array as="points">
              <mxPoint x="533" y="1703" />
            </Array>
          </mxGeometry>
        </mxCell>
        <mxCell id="Ppeax3_3dTHggxRKk9m_-65" value="" style="endArrow=classic;html=1;entryX=0.361;entryY=0.991;entryDx=0;entryDy=0;entryPerimeter=0;" edge="1" parent="1" target="Ppeax3_3dTHggxRKk9m_-54">
          <mxGeometry width="50" height="50" relative="1" as="geometry">
            <mxPoint x="260" y="1712" as="sourcePoint" />
            <mxPoint x="563.3200000000002" y="1706" as="targetPoint" />
            <Array as="points">
              <mxPoint x="561" y="1712" />
            </Array>
          </mxGeometry>
        </mxCell>
        <mxCell id="Ppeax3_3dTHggxRKk9m_-66" value="" style="endArrow=classic;html=1;entryX=0.527;entryY=0.995;entryDx=0;entryDy=0;entryPerimeter=0;" edge="1" parent="1" target="Ppeax3_3dTHggxRKk9m_-54">
          <mxGeometry width="50" height="50" relative="1" as="geometry">
            <mxPoint x="300" y="1722" as="sourcePoint" />
            <mxPoint x="591.3699999999999" y="1700" as="targetPoint" />
            <Array as="points">
              <mxPoint x="590" y="1722" />
            </Array>
          </mxGeometry>
        </mxCell>
        <mxCell id="Ppeax3_3dTHggxRKk9m_-67" value="" style="endArrow=classic;html=1;entryX=0.778;entryY=1.006;entryDx=0;entryDy=0;entryPerimeter=0;" edge="1" parent="1" target="Ppeax3_3dTHggxRKk9m_-54">
          <mxGeometry width="50" height="50" relative="1" as="geometry">
            <mxPoint x="330" y="1732" as="sourcePoint" />
            <mxPoint x="632" y="1682" as="targetPoint" />
            <Array as="points">
              <mxPoint x="632" y="1732" />
            </Array>
          </mxGeometry>
        </mxCell>
        <mxCell id="Ppeax3_3dTHggxRKk9m_-68" value="" style="endArrow=classic;html=1;entryX=0.001;entryY=0.835;entryDx=0;entryDy=0;entryPerimeter=0;" edge="1" parent="1">
          <mxGeometry width="50" height="50" relative="1" as="geometry">
            <mxPoint x="670" y="1840" as="sourcePoint" />
            <mxPoint x="819.9999999999995" y="1840" as="targetPoint" />
          </mxGeometry>
        </mxCell>
        <mxCell id="Ppeax3_3dTHggxRKk9m_-69" value="&lt;font style=&quot;font-size: 16px&quot;&gt;Житлова плоша&lt;br style=&quot;font-size: 16px&quot;&gt;&lt;/font&gt;" style="text;html=1;align=center;verticalAlign=middle;resizable=0;points=[];labelBackgroundColor=#ffffff;fontSize=16;" connectable="0" vertex="1" parent="Ppeax3_3dTHggxRKk9m_-68">
          <mxGeometry x="-0.24" y="1" relative="1" as="geometry">
            <mxPoint x="0.5" y="-19" as="offset" />
          </mxGeometry>
        </mxCell>
        <mxCell id="Ppeax3_3dTHggxRKk9m_-70" value="" style="endArrow=classic;html=1;entryX=0.146;entryY=1.019;entryDx=0;entryDy=0;entryPerimeter=0;" edge="1" parent="1" target="Ppeax3_3dTHggxRKk9m_-58">
          <mxGeometry width="50" height="50" relative="1" as="geometry">
            <mxPoint x="230" y="1895" as="sourcePoint" />
            <mxPoint x="533.3199999999997" y="1872" as="targetPoint" />
            <Array as="points">
              <mxPoint x="580" y="1895" />
              <mxPoint x="620" y="1895" />
              <mxPoint x="670" y="1895" />
              <mxPoint x="845" y="1895" />
            </Array>
          </mxGeometry>
        </mxCell>
        <mxCell id="Ppeax3_3dTHggxRKk9m_-71" value="" style="endArrow=classic;html=1;" edge="1" parent="1">
          <mxGeometry width="50" height="50" relative="1" as="geometry">
            <mxPoint x="260" y="1905" as="sourcePoint" />
            <mxPoint x="875" y="1852" as="targetPoint" />
            <Array as="points">
              <mxPoint x="610" y="1905" />
              <mxPoint x="700" y="1905" />
              <mxPoint x="875" y="1905" />
            </Array>
          </mxGeometry>
        </mxCell>
        <mxCell id="Ppeax3_3dTHggxRKk9m_-72" value="" style="endArrow=classic;html=1;" edge="1" parent="1">
          <mxGeometry width="50" height="50" relative="1" as="geometry">
            <mxPoint x="300" y="1915" as="sourcePoint" />
            <mxPoint x="915" y="1852" as="targetPoint" />
            <Array as="points">
              <mxPoint x="650" y="1915" />
              <mxPoint x="740" y="1915" />
              <mxPoint x="915" y="1915" />
            </Array>
          </mxGeometry>
        </mxCell>
        <mxCell id="Ppeax3_3dTHggxRKk9m_-73" value="" style="endArrow=classic;html=1;" edge="1" parent="1">
          <mxGeometry width="50" height="50" relative="1" as="geometry">
            <mxPoint x="331.6899999999996" y="1925" as="sourcePoint" />
            <mxPoint x="947" y="1852" as="targetPoint" />
            <Array as="points">
              <mxPoint x="681.69" y="1925" />
              <mxPoint x="771.69" y="1925" />
              <mxPoint x="946.69" y="1925" />
            </Array>
          </mxGeometry>
        </mxCell>
        <mxCell id="Ppeax3_3dTHggxRKk9m_-74" value="" style="endArrow=classic;html=1;" edge="1" parent="1">
          <mxGeometry width="50" height="50" relative="1" as="geometry">
            <mxPoint x="226" y="2032.9099999999999" as="sourcePoint" />
            <mxPoint x="1230" y="1992" as="targetPoint" />
            <Array as="points">
              <mxPoint x="576" y="2032.9099999999999" />
              <mxPoint x="666" y="2032.9099999999999" />
              <mxPoint x="1230" y="2033" />
              <mxPoint x="1230" y="2010" />
            </Array>
          </mxGeometry>
        </mxCell>
        <mxCell id="Ppeax3_3dTHggxRKk9m_-75" value="" style="endArrow=classic;html=1;entryX=0.647;entryY=1;entryDx=0;entryDy=0;entryPerimeter=0;" edge="1" parent="1" target="Ppeax3_3dTHggxRKk9m_-59">
          <mxGeometry width="50" height="50" relative="1" as="geometry">
            <mxPoint x="260" y="2042" as="sourcePoint" />
            <mxPoint x="1260" y="1995" as="targetPoint" />
            <Array as="points">
              <mxPoint x="650" y="2042.9099999999999" />
              <mxPoint x="740" y="2042.9099999999999" />
              <mxPoint x="1260" y="2042" />
              <mxPoint x="1260" y="2010" />
            </Array>
          </mxGeometry>
        </mxCell>
        <mxCell id="Ppeax3_3dTHggxRKk9m_-76" value="" style="endArrow=classic;html=1;fontSize=14;entryX=0.899;entryY=-0.025;entryDx=0;entryDy=0;entryPerimeter=0;" edge="1" parent="1" target="Ppeax3_3dTHggxRKk9m_-59">
          <mxGeometry width="50" height="50" relative="1" as="geometry">
            <mxPoint x="1303" y="1720" as="sourcePoint" />
            <mxPoint x="120" y="2222" as="targetPoint" />
            <Array as="points">
              <mxPoint x="1303" y="1762" />
            </Array>
          </mxGeometry>
        </mxCell>
        <mxCell id="Ppeax3_3dTHggxRKk9m_-77" value="Template MS Word" style="text;html=1;align=center;verticalAlign=middle;resizable=0;points=[];labelBackgroundColor=#ffffff;fontSize=16;horizontal=0;" vertex="1" connectable="0" parent="Ppeax3_3dTHggxRKk9m_-76">
          <mxGeometry x="0.172" y="4" relative="1" as="geometry">
            <mxPoint x="-21.6" y="-16.770000000000003" as="offset" />
          </mxGeometry>
        </mxCell>
        <mxCell id="Ppeax3_3dTHggxRKk9m_-78" value="&lt;span style=&quot;font-size: 18px;&quot;&gt;ПП &quot;Житла&quot;&lt;/span&gt;" style="text;html=1;align=center;verticalAlign=middle;resizable=0;points=[];labelBackgroundColor=#ffffff;fontSize=19;fontFamily=Tahoma;rotation=-90;" connectable="0" vertex="1" parent="1">
          <mxGeometry x="210" y="2180.0005882352943" as="geometry">
            <mxPoint x="-1.1102230246251565e-16" y="-4" as="offset" />
          </mxGeometry>
        </mxCell>
        <mxCell id="Ppeax3_3dTHggxRKk9m_-79" value="&lt;font color=&quot;#990099&quot; style=&quot;font-size: 19px&quot;&gt;Сервер БД MySQL&lt;/font&gt;" style="text;html=1;align=center;verticalAlign=middle;resizable=0;points=[];labelBackgroundColor=#ffffff;fontSize=18;fontFamily=Tahoma;rotation=-90;" connectable="0" vertex="1" parent="1">
          <mxGeometry x="280" y="2180.0005882352943" as="geometry" />
        </mxCell>
        <mxCell id="Ppeax3_3dTHggxRKk9m_-80" value="Співробітник компанії" style="text;html=1;align=center;verticalAlign=middle;resizable=0;points=[];labelBackgroundColor=#ffffff;fontSize=19;fontFamily=Tahoma;rotation=-90;fontColor=#990099;" connectable="0" vertex="1" parent="1">
          <mxGeometry x="239.9999999999999" y="2164.0005882352943" as="geometry" />
        </mxCell>
        <mxCell id="Ppeax3_3dTHggxRKk9m_-81" value="&lt;font color=&quot;#990099&quot; style=&quot;font-size: 19px&quot;&gt;Framework .NET&lt;/font&gt;" style="text;html=1;align=center;verticalAlign=middle;resizable=0;points=[];labelBackgroundColor=#ffffff;fontSize=18;fontFamily=Tahoma;rotation=-90;" connectable="0" vertex="1" parent="1">
          <mxGeometry x="320" y="2190.0005882352943" as="geometry">
            <mxPoint x="9" y="-4.000000000000001" as="offset" />
          </mxGeometry>
        </mxCell>
        <mxCell id="Ppeax3_3dTHggxRKk9m_-82" value="" style="shape=mxgraph.bpmn.shape;html=1;verticalLabelPosition=bottom;labelBackgroundColor=#ffffff;verticalAlign=top;align=center;perimeter=ellipsePerimeter;outlineConnect=0;outline=standard;symbol=general;fontSize=16;" vertex="1" parent="1">
          <mxGeometry x="270.5" y="2398" width="50" height="50" as="geometry" />
        </mxCell>
        <mxCell id="Ppeax3_3dTHggxRKk9m_-83" value="Робітник компанії" style="text;html=1;strokeColor=none;fillColor=none;align=center;verticalAlign=middle;whiteSpace=wrap;rounded=0;fontSize=19;fontColor=#990099;" vertex="1" parent="1">
          <mxGeometry x="223" y="2355" width="145" height="20" as="geometry" />
        </mxCell>
        <mxCell id="Ppeax3_3dTHggxRKk9m_-84" value="" style="endArrow=classic;html=1;fontSize=19;fontColor=#990099;exitX=1;exitY=0.5;exitDx=0;exitDy=0;entryX=0;entryY=0.5;entryDx=0;entryDy=0;strokeWidth=2;" edge="1" parent="1" source="Ppeax3_3dTHggxRKk9m_-82" target="Ppeax3_3dTHggxRKk9m_-135">
          <mxGeometry width="50" height="50" relative="1" as="geometry">
            <mxPoint x="660.5" y="2640" as="sourcePoint" />
            <mxPoint x="770.5" y="2415" as="targetPoint" />
          </mxGeometry>
        </mxCell>
        <mxCell id="Ppeax3_3dTHggxRKk9m_-85" value="&lt;font style=&quot;font-size: 19px&quot; color=&quot;#990099&quot;&gt;Перегляд данних про мешканців&lt;/font&gt;" style="shape=ext;rounded=1;html=1;whiteSpace=wrap;fontSize=16;" vertex="1" parent="1">
          <mxGeometry x="970" y="2383" width="138.47" height="80" as="geometry" />
        </mxCell>
        <mxCell id="Ppeax3_3dTHggxRKk9m_-86" value="" style="endArrow=classic;html=1;fontSize=19;fontColor=#990099;entryX=1;entryY=0.5;entryDx=0;entryDy=0;dashed=1;strokeWidth=2;exitX=0;exitY=0.5;exitDx=0;exitDy=0;" edge="1" parent="1" source="Ppeax3_3dTHggxRKk9m_-87" target="Ppeax3_3dTHggxRKk9m_-85">
          <mxGeometry width="50" height="50" relative="1" as="geometry">
            <mxPoint x="1210" y="2423" as="sourcePoint" />
            <mxPoint x="1330" y="2478" as="targetPoint" />
          </mxGeometry>
        </mxCell>
        <mxCell id="Ppeax3_3dTHggxRKk9m_-87" value="БД&amp;nbsp;&lt;a style=&quot;box-sizing: border-box ; background-color: rgb(255 , 255 , 255) ; font-family: , &amp;quot;blinkmacsystemfont&amp;quot; , &amp;quot;segoe ui&amp;quot; , &amp;quot;helvetica&amp;quot; , &amp;quot;arial&amp;quot; , sans-serif , &amp;quot;apple color emoji&amp;quot; , &amp;quot;segoe ui emoji&amp;quot; ; font-size: 16px&quot; href=&quot;https://github.com/OlgaTat/TSPP2019-20/blob/master/Input%20Files/aviadispetcher.sql&quot;&gt;dwelling.sql&lt;/a&gt;" style="shape=datastore;whiteSpace=wrap;html=1;fontSize=19;fontColor=#990099;align=center;" vertex="1" parent="1">
          <mxGeometry x="1170" y="2388" width="180" height="72" as="geometry" />
        </mxCell>
        <mxCell id="Ppeax3_3dTHggxRKk9m_-88" value="" style="endArrow=none;dashed=1;html=1;dashPattern=1 3;strokeWidth=4;fontSize=19;fontColor=#990099;strokeColor=#006633;" edge="1" parent="1">
          <mxGeometry width="50" height="50" relative="1" as="geometry">
            <mxPoint x="390.5" y="3890" as="sourcePoint" />
            <mxPoint x="390.5" y="2310" as="targetPoint" />
          </mxGeometry>
        </mxCell>
        <mxCell id="Ppeax3_3dTHggxRKk9m_-89" style="edgeStyle=orthogonalEdgeStyle;rounded=0;orthogonalLoop=1;jettySize=auto;html=1;exitX=0;exitY=0.5;exitDx=0;exitDy=0;strokeColor=#000000;strokeWidth=2;fontSize=19;fontColor=#990099;entryX=0;entryY=0.5;entryDx=0;entryDy=0;" edge="1" parent="1" source="Ppeax3_3dTHggxRKk9m_-90" target="Ppeax3_3dTHggxRKk9m_-96">
          <mxGeometry relative="1" as="geometry">
            <mxPoint x="1000" y="2838" as="targetPoint" />
            <Array as="points">
              <mxPoint x="900" y="2603" />
              <mxPoint x="900" y="2831" />
            </Array>
          </mxGeometry>
        </mxCell>
        <mxCell id="Ppeax3_3dTHggxRKk9m_-90" value="" style="shape=mxgraph.bpmn.shape;html=1;verticalLabelPosition=bottom;labelBackgroundColor=#ffffff;verticalAlign=top;align=center;perimeter=rhombusPerimeter;background=gateway;outlineConnect=0;outline=none;symbol=exclusiveGw;fontSize=16;" vertex="1" parent="1">
          <mxGeometry x="1014.24" y="2578" width="50" height="50" as="geometry" />
        </mxCell>
        <mxCell id="Ppeax3_3dTHggxRKk9m_-91" value="&amp;nbsp;Потреба у редагуванні даних?" style="text;html=1;align=center;verticalAlign=middle;whiteSpace=wrap;rounded=0;fontSize=19;rotation=0;" vertex="1" parent="1">
          <mxGeometry x="900" y="2478" width="160" height="80" as="geometry" />
        </mxCell>
        <mxCell id="Ppeax3_3dTHggxRKk9m_-92" value="" style="endArrow=classic;html=1;strokeWidth=2;fontSize=19;fontColor=#990099;exitX=0.5;exitY=1;exitDx=0;exitDy=0;entryX=0.5;entryY=0;entryDx=0;entryDy=0;" edge="1" parent="1" source="Ppeax3_3dTHggxRKk9m_-85" target="Ppeax3_3dTHggxRKk9m_-90">
          <mxGeometry width="50" height="50" relative="1" as="geometry">
            <mxPoint x="1160" y="2638" as="sourcePoint" />
            <mxPoint x="1210" y="2588" as="targetPoint" />
          </mxGeometry>
        </mxCell>
        <mxCell id="Ppeax3_3dTHggxRKk9m_-93" value="" style="endArrow=block;endFill=1;endSize=6;html=1;strokeColor=#000000;strokeWidth=2;fontSize=19;fontColor=#990099;exitX=0.5;exitY=1;exitDx=0;exitDy=0;entryX=0.5;entryY=0;entryDx=0;entryDy=0;" edge="1" parent="1" source="Ppeax3_3dTHggxRKk9m_-90" target="Ppeax3_3dTHggxRKk9m_-94">
          <mxGeometry width="100" relative="1" as="geometry">
            <mxPoint x="1030" y="2678" as="sourcePoint" />
            <mxPoint x="1039" y="2688" as="targetPoint" />
          </mxGeometry>
        </mxCell>
        <mxCell id="Ppeax3_3dTHggxRKk9m_-94" value="&lt;font style=&quot;font-size: 19px&quot; color=&quot;#990099&quot;&gt;Редагування даних по кожій адресі&lt;br&gt;&lt;/font&gt;" style="shape=ext;rounded=1;html=1;whiteSpace=wrap;fontSize=16;" vertex="1" parent="1">
          <mxGeometry x="951.17" y="2688" width="176.14" height="70" as="geometry" />
        </mxCell>
        <mxCell id="Ppeax3_3dTHggxRKk9m_-95" value="" style="endArrow=block;endFill=1;endSize=6;html=1;strokeColor=#000000;strokeWidth=2;fontSize=19;fontColor=#990099;exitX=0.5;exitY=1;exitDx=0;exitDy=0;entryX=0.5;entryY=0;entryDx=0;entryDy=0;" edge="1" parent="1" source="Ppeax3_3dTHggxRKk9m_-94" target="Ppeax3_3dTHggxRKk9m_-96">
          <mxGeometry width="100" relative="1" as="geometry">
            <mxPoint x="1030" y="2828" as="sourcePoint" />
            <mxPoint x="1039" y="2838" as="targetPoint" />
          </mxGeometry>
        </mxCell>
        <mxCell id="Ppeax3_3dTHggxRKk9m_-96" value="" style="shape=mxgraph.bpmn.shape;html=1;verticalLabelPosition=bottom;labelBackgroundColor=#ffffff;verticalAlign=top;align=center;perimeter=rhombusPerimeter;background=gateway;outlineConnect=0;outline=none;symbol=exclusiveGw;fontSize=16;" vertex="1" parent="1">
          <mxGeometry x="1014.24" y="2806" width="50" height="50" as="geometry" />
        </mxCell>
        <mxCell id="Ppeax3_3dTHggxRKk9m_-97" value="так" style="text;html=1;strokeColor=none;fillColor=none;align=center;verticalAlign=middle;whiteSpace=wrap;rounded=0;fontSize=19;fontColor=#990099;rotation=0;" vertex="1" parent="1">
          <mxGeometry x="1040" y="2638" width="40" height="20" as="geometry" />
        </mxCell>
        <mxCell id="Ppeax3_3dTHggxRKk9m_-98" value="ні" style="text;html=1;strokeColor=none;fillColor=none;align=center;verticalAlign=middle;whiteSpace=wrap;rounded=0;fontSize=19;fontColor=#990099;rotation=0;" vertex="1" parent="1">
          <mxGeometry x="947" y="2578" width="40" height="20" as="geometry" />
        </mxCell>
        <mxCell id="Ppeax3_3dTHggxRKk9m_-99" style="edgeStyle=orthogonalEdgeStyle;rounded=0;orthogonalLoop=1;jettySize=auto;html=1;exitX=0;exitY=0.5;exitDx=0;exitDy=0;strokeColor=#000000;strokeWidth=2;fontSize=19;fontColor=#990099;entryX=1;entryY=0.5;entryDx=0;entryDy=0;" edge="1" parent="1" source="Ppeax3_3dTHggxRKk9m_-100" target="Ppeax3_3dTHggxRKk9m_-106">
          <mxGeometry relative="1" as="geometry">
            <mxPoint x="1000" y="3231" as="targetPoint" />
            <Array as="points">
              <mxPoint x="1200" y="2996" />
              <mxPoint x="1200" y="3375" />
            </Array>
          </mxGeometry>
        </mxCell>
        <mxCell id="Ppeax3_3dTHggxRKk9m_-100" value="" style="shape=mxgraph.bpmn.shape;html=1;verticalLabelPosition=bottom;labelBackgroundColor=#ffffff;verticalAlign=top;align=center;perimeter=rhombusPerimeter;background=gateway;outlineConnect=0;outline=none;symbol=exclusiveGw;fontSize=16;" vertex="1" parent="1">
          <mxGeometry x="1014.24" y="2971" width="50" height="50" as="geometry" />
        </mxCell>
        <mxCell id="Ppeax3_3dTHggxRKk9m_-101" value="&amp;nbsp;Потреба у додаванні даних?" style="text;html=1;align=center;verticalAlign=middle;whiteSpace=wrap;rounded=0;fontSize=19;rotation=0;" vertex="1" parent="1">
          <mxGeometry x="880" y="2858" width="160" height="80" as="geometry" />
        </mxCell>
        <mxCell id="Ppeax3_3dTHggxRKk9m_-102" value="" style="endArrow=classic;html=1;strokeWidth=2;fontSize=19;fontColor=#990099;exitX=0.5;exitY=1;exitDx=0;exitDy=0;entryX=0.5;entryY=0;entryDx=0;entryDy=0;" edge="1" parent="1" source="Ppeax3_3dTHggxRKk9m_-96" target="Ppeax3_3dTHggxRKk9m_-100">
          <mxGeometry width="50" height="50" relative="1" as="geometry">
            <mxPoint x="1039.2350000000001" y="2856" as="sourcePoint" />
            <mxPoint x="1210" y="2981" as="targetPoint" />
          </mxGeometry>
        </mxCell>
        <mxCell id="Ppeax3_3dTHggxRKk9m_-103" value="" style="endArrow=block;endFill=1;endSize=6;html=1;strokeColor=#000000;strokeWidth=2;fontSize=19;fontColor=#990099;exitX=0.5;exitY=1;exitDx=0;exitDy=0;entryX=0.5;entryY=0;entryDx=0;entryDy=0;startArrow=none;" edge="1" parent="1" source="Ppeax3_3dTHggxRKk9m_-146" target="Ppeax3_3dTHggxRKk9m_-104">
          <mxGeometry width="100" relative="1" as="geometry">
            <mxPoint x="1030" y="3071" as="sourcePoint" />
            <mxPoint x="1039" y="3058" as="targetPoint" />
          </mxGeometry>
        </mxCell>
        <mxCell id="Ppeax3_3dTHggxRKk9m_-104" value="&lt;font color=&quot;#990099&quot;&gt;&lt;span style=&quot;font-size: 19px&quot;&gt;Додавання нового запису у список адрес файлу&lt;/span&gt;&lt;/font&gt;" style="shape=ext;rounded=1;html=1;whiteSpace=wrap;fontSize=16;" vertex="1" parent="1">
          <mxGeometry x="951.17" y="3210" width="176.14" height="70" as="geometry" />
        </mxCell>
        <mxCell id="Ppeax3_3dTHggxRKk9m_-105" value="" style="endArrow=block;endFill=1;endSize=6;html=1;strokeColor=#000000;strokeWidth=2;fontSize=19;fontColor=#990099;entryX=0.5;entryY=0;entryDx=0;entryDy=0;exitX=0.5;exitY=1;exitDx=0;exitDy=0;" edge="1" parent="1" source="Ppeax3_3dTHggxRKk9m_-104" target="Ppeax3_3dTHggxRKk9m_-106">
          <mxGeometry width="100" relative="1" as="geometry">
            <mxPoint x="1039" y="3300" as="sourcePoint" />
            <mxPoint x="1039" y="3353" as="targetPoint" />
          </mxGeometry>
        </mxCell>
        <mxCell id="Ppeax3_3dTHggxRKk9m_-106" value="" style="shape=mxgraph.bpmn.shape;html=1;verticalLabelPosition=bottom;labelBackgroundColor=#ffffff;verticalAlign=top;align=center;perimeter=rhombusPerimeter;background=gateway;outlineConnect=0;outline=none;symbol=exclusiveGw;fontSize=16;" vertex="1" parent="1">
          <mxGeometry x="1014.24" y="3350" width="50" height="50" as="geometry" />
        </mxCell>
        <mxCell id="Ppeax3_3dTHggxRKk9m_-107" value="ні" style="text;html=1;strokeColor=none;fillColor=none;align=center;verticalAlign=middle;whiteSpace=wrap;rounded=0;fontSize=19;fontColor=#990099;rotation=0;" vertex="1" parent="1">
          <mxGeometry x="1100" y="2971" width="40" height="20" as="geometry" />
        </mxCell>
        <mxCell id="Ppeax3_3dTHggxRKk9m_-108" value="" style="endArrow=classic;html=1;strokeWidth=2;fontSize=19;fontColor=#990099;exitX=0.5;exitY=1;exitDx=0;exitDy=0;entryX=0.5;entryY=0;entryDx=0;entryDy=0;" edge="1" parent="1" source="Ppeax3_3dTHggxRKk9m_-106" target="Ppeax3_3dTHggxRKk9m_-109">
          <mxGeometry width="50" height="50" relative="1" as="geometry">
            <mxPoint x="1020" y="3620" as="sourcePoint" />
            <mxPoint x="1039" y="3480" as="targetPoint" />
          </mxGeometry>
        </mxCell>
        <mxCell id="Ppeax3_3dTHggxRKk9m_-109" value="&lt;font color=&quot;#990099&quot;&gt;&lt;span style=&quot;font-size: 19px&quot;&gt;Обробка даних&lt;/span&gt;&lt;/font&gt;" style="shape=ext;rounded=1;html=1;whiteSpace=wrap;fontSize=16;" vertex="1" parent="1">
          <mxGeometry x="951.17" y="3430" width="176.14" height="70" as="geometry" />
        </mxCell>
        <mxCell id="Ppeax3_3dTHggxRKk9m_-110" value="" style="endArrow=classic;html=1;strokeColor=#000000;strokeWidth=2;fontSize=19;fontColor=#990099;exitX=0.5;exitY=1;exitDx=0;exitDy=0;entryX=0.5;entryY=0;entryDx=0;entryDy=0;" edge="1" parent="1" source="Ppeax3_3dTHggxRKk9m_-109" target="Ppeax3_3dTHggxRKk9m_-112">
          <mxGeometry width="50" height="50" relative="1" as="geometry">
            <mxPoint x="1010" y="3640" as="sourcePoint" />
            <mxPoint x="1039" y="3560" as="targetPoint" />
          </mxGeometry>
        </mxCell>
        <mxCell id="Ppeax3_3dTHggxRKk9m_-111" style="edgeStyle=orthogonalEdgeStyle;rounded=0;orthogonalLoop=1;jettySize=auto;html=1;exitX=0;exitY=0.5;exitDx=0;exitDy=0;entryX=1;entryY=0.5;entryDx=0;entryDy=0;strokeColor=#000000;strokeWidth=2;fontSize=19;fontColor=#990099;" edge="1" parent="1" source="Ppeax3_3dTHggxRKk9m_-112" target="Ppeax3_3dTHggxRKk9m_-115">
          <mxGeometry relative="1" as="geometry" />
        </mxCell>
        <mxCell id="Ppeax3_3dTHggxRKk9m_-112" value="" style="shape=mxgraph.bpmn.shape;html=1;verticalLabelPosition=bottom;labelBackgroundColor=#ffffff;verticalAlign=top;align=center;perimeter=rhombusPerimeter;background=gateway;outlineConnect=0;outline=none;symbol=exclusiveGw;fontSize=16;" vertex="1" parent="1">
          <mxGeometry x="1014.24" y="3590" width="50" height="50" as="geometry" />
        </mxCell>
        <mxCell id="Ppeax3_3dTHggxRKk9m_-113" value="Дані по запитам були успішно оброблені?" style="text;html=1;align=center;verticalAlign=middle;whiteSpace=wrap;rounded=0;fontSize=19;rotation=0;" vertex="1" parent="1">
          <mxGeometry x="1047.5" y="3510" width="160" height="80" as="geometry" />
        </mxCell>
        <mxCell id="Ppeax3_3dTHggxRKk9m_-114" style="edgeStyle=orthogonalEdgeStyle;rounded=0;orthogonalLoop=1;jettySize=auto;html=1;exitX=0.5;exitY=1;exitDx=0;exitDy=0;entryX=0.5;entryY=0;entryDx=0;entryDy=0;strokeColor=#000000;strokeWidth=2;fontSize=19;fontColor=#990099;" edge="1" parent="1" source="Ppeax3_3dTHggxRKk9m_-115" target="Ppeax3_3dTHggxRKk9m_-122">
          <mxGeometry relative="1" as="geometry" />
        </mxCell>
        <mxCell id="Ppeax3_3dTHggxRKk9m_-115" value="&lt;font color=&quot;#990099&quot; style=&quot;font-size: 19px&quot;&gt;Додавання нового запису\редагування наявної інформації&lt;/font&gt;" style="shape=ext;rounded=1;html=1;whiteSpace=wrap;fontSize=16;" vertex="1" parent="1">
          <mxGeometry x="690" y="3550" width="270" height="130" as="geometry" />
        </mxCell>
        <mxCell id="Ppeax3_3dTHggxRKk9m_-116" value="так" style="text;html=1;strokeColor=none;fillColor=none;align=center;verticalAlign=middle;whiteSpace=wrap;rounded=0;fontSize=19;fontColor=#990099;rotation=0;" vertex="1" parent="1">
          <mxGeometry x="970" y="3590" width="40" height="20" as="geometry" />
        </mxCell>
        <mxCell id="Ppeax3_3dTHggxRKk9m_-117" value="" style="endArrow=classic;html=1;strokeColor=#000000;strokeWidth=2;fontSize=19;fontColor=#990099;exitX=0.5;exitY=1;exitDx=0;exitDy=0;entryX=0.5;entryY=0;entryDx=0;entryDy=0;" edge="1" parent="1" source="Ppeax3_3dTHggxRKk9m_-112" target="Ppeax3_3dTHggxRKk9m_-119">
          <mxGeometry width="50" height="50" relative="1" as="geometry">
            <mxPoint x="970" y="3720" as="sourcePoint" />
            <mxPoint x="1039" y="3710" as="targetPoint" />
          </mxGeometry>
        </mxCell>
        <mxCell id="Ppeax3_3dTHggxRKk9m_-118" value="ні" style="text;html=1;strokeColor=none;fillColor=none;align=center;verticalAlign=middle;whiteSpace=wrap;rounded=0;fontSize=19;fontColor=#990099;rotation=0;" vertex="1" parent="1">
          <mxGeometry x="1035" y="3690" width="40" height="20" as="geometry" />
        </mxCell>
        <mxCell id="Ppeax3_3dTHggxRKk9m_-119" value="" style="shape=mxgraph.bpmn.shape;html=1;verticalLabelPosition=bottom;labelBackgroundColor=#ffffff;verticalAlign=top;align=center;perimeter=ellipsePerimeter;outlineConnect=0;outline=standard;symbol=general;fontSize=16;strokeWidth=5;" vertex="1" parent="1">
          <mxGeometry x="1014.24" y="3780" width="50" height="50" as="geometry" />
        </mxCell>
        <mxCell id="Ppeax3_3dTHggxRKk9m_-120" style="edgeStyle=orthogonalEdgeStyle;rounded=0;orthogonalLoop=1;jettySize=auto;html=1;entryX=0;entryY=0.5;entryDx=0;entryDy=0;strokeColor=#000000;strokeWidth=2;fontSize=19;fontColor=#990099;" edge="1" parent="1" source="Ppeax3_3dTHggxRKk9m_-122" target="Ppeax3_3dTHggxRKk9m_-119">
          <mxGeometry relative="1" as="geometry" />
        </mxCell>
        <mxCell id="Ppeax3_3dTHggxRKk9m_-121" style="edgeStyle=orthogonalEdgeStyle;rounded=0;orthogonalLoop=1;jettySize=auto;html=1;exitX=0.5;exitY=1;exitDx=0;exitDy=0;entryX=0;entryY=0.5;entryDx=0;entryDy=0;strokeColor=#000000;strokeWidth=2;fontSize=19;fontColor=#990099;" edge="1" parent="1" source="Ppeax3_3dTHggxRKk9m_-122" target="Ppeax3_3dTHggxRKk9m_-127">
          <mxGeometry relative="1" as="geometry" />
        </mxCell>
        <mxCell id="Ppeax3_3dTHggxRKk9m_-122" value="" style="shape=mxgraph.bpmn.shape;html=1;verticalLabelPosition=bottom;labelBackgroundColor=#ffffff;verticalAlign=top;align=center;perimeter=rhombusPerimeter;background=gateway;outlineConnect=0;outline=none;symbol=exclusiveGw;fontSize=16;" vertex="1" parent="1">
          <mxGeometry x="800" y="3780" width="50" height="50" as="geometry" />
        </mxCell>
        <mxCell id="Ppeax3_3dTHggxRKk9m_-123" value="Збереження отриманих результатів?" style="text;html=1;align=center;verticalAlign=middle;whiteSpace=wrap;rounded=0;fontSize=19;rotation=0;" vertex="1" parent="1">
          <mxGeometry x="820" y="3690" width="160" height="80" as="geometry" />
        </mxCell>
        <mxCell id="Ppeax3_3dTHggxRKk9m_-124" value="ні" style="text;html=1;strokeColor=none;fillColor=none;align=center;verticalAlign=middle;whiteSpace=wrap;rounded=0;fontSize=19;fontColor=#990099;rotation=0;" vertex="1" parent="1">
          <mxGeometry x="910" y="3780" width="40" height="20" as="geometry" />
        </mxCell>
        <mxCell id="Ppeax3_3dTHggxRKk9m_-125" style="edgeStyle=orthogonalEdgeStyle;rounded=0;orthogonalLoop=1;jettySize=auto;html=1;exitX=0.5;exitY=0;exitDx=0;exitDy=0;entryX=1;entryY=0.5;entryDx=0;entryDy=0;strokeColor=#000000;strokeWidth=2;fontSize=19;fontColor=#990099;" edge="1" parent="1" source="Ppeax3_3dTHggxRKk9m_-127" target="Ppeax3_3dTHggxRKk9m_-119">
          <mxGeometry relative="1" as="geometry" />
        </mxCell>
        <mxCell id="Ppeax3_3dTHggxRKk9m_-126" style="edgeStyle=orthogonalEdgeStyle;rounded=0;orthogonalLoop=1;jettySize=auto;html=1;exitX=0.5;exitY=1;exitDx=0;exitDy=0;strokeWidth=2;fontSize=19;fontColor=#990099;dashed=1;strokeColor=#00CC66;entryX=0.5;entryY=0;entryDx=0;entryDy=0;entryPerimeter=0;" edge="1" parent="1" source="Ppeax3_3dTHggxRKk9m_-127" target="Ppeax3_3dTHggxRKk9m_-129">
          <mxGeometry relative="1" as="geometry">
            <mxPoint x="1238.294117647059" y="3980" as="targetPoint" />
          </mxGeometry>
        </mxCell>
        <mxCell id="Ppeax3_3dTHggxRKk9m_-127" value="&lt;font color=&quot;#990099&quot;&gt;&lt;span style=&quot;font-size: 19px&quot;&gt;Збереження даних&lt;br&gt;в MS Word&lt;br&gt;&lt;/span&gt;&lt;/font&gt;" style="shape=ext;rounded=1;html=1;whiteSpace=wrap;fontSize=16;" vertex="1" parent="1">
          <mxGeometry x="1150" y="3830" width="176.14" height="70" as="geometry" />
        </mxCell>
        <mxCell id="Ppeax3_3dTHggxRKk9m_-128" value="так" style="text;html=1;strokeColor=none;fillColor=none;align=center;verticalAlign=middle;whiteSpace=wrap;rounded=0;fontSize=19;fontColor=#990099;rotation=0;" vertex="1" parent="1">
          <mxGeometry x="917.67" y="3840" width="40" height="20" as="geometry" />
        </mxCell>
        <mxCell id="Ppeax3_3dTHggxRKk9m_-129" value="" style="shape=note;whiteSpace=wrap;size=16;html=1;dropTarget=0;strokeColor=#990099;strokeWidth=2;fontSize=19;fontColor=#990099;" vertex="1" parent="1">
          <mxGeometry x="1217.67" y="3960" width="40" height="60" as="geometry" />
        </mxCell>
        <mxCell id="Ppeax3_3dTHggxRKk9m_-130" value="" style="html=1;shape=singleArrow;arrowWidth=0.4;arrowSize=0.4;outlineConnect=0;" vertex="1" parent="Ppeax3_3dTHggxRKk9m_-129">
          <mxGeometry width="14" height="14" relative="1" as="geometry">
            <mxPoint x="2" y="2" as="offset" />
          </mxGeometry>
        </mxCell>
        <mxCell id="Ppeax3_3dTHggxRKk9m_-131" value="" style="html=1;whiteSpace=wrap;shape=parallelMarker;outlineConnect=0;" vertex="1" parent="Ppeax3_3dTHggxRKk9m_-129">
          <mxGeometry x="0.5" y="1" width="14" height="14" relative="1" as="geometry">
            <mxPoint x="-7" y="-14" as="offset" />
          </mxGeometry>
        </mxCell>
        <mxCell id="Ppeax3_3dTHggxRKk9m_-132" value="&lt;font style=&quot;font-size: 16px&quot;&gt;&lt;br style=&quot;font-size: 16px&quot;&gt;&lt;/font&gt;" style="text;html=1;align=center;verticalAlign=middle;resizable=0;points=[];labelBackgroundColor=#ffffff;fontSize=16;" connectable="0" vertex="1" parent="1">
          <mxGeometry x="727.5" y="1820" as="geometry" />
        </mxCell>
        <mxCell id="Ppeax3_3dTHggxRKk9m_-133" value="&lt;div style=&quot;text-align: center&quot;&gt;&lt;span style=&quot;font-size: 16px ; background-color: rgb(255 , 255 , 255)&quot;&gt;прізвище споживача&lt;/span&gt;&lt;br&gt;&lt;/div&gt;" style="text;whiteSpace=wrap;html=1;" vertex="1" parent="1">
          <mxGeometry x="391.5" y="1640" width="163" height="30" as="geometry" />
        </mxCell>
        <mxCell id="Ppeax3_3dTHggxRKk9m_-134" style="edgeStyle=orthogonalEdgeStyle;rounded=0;orthogonalLoop=1;jettySize=auto;html=1;entryX=0;entryY=0.5;entryDx=0;entryDy=0;" edge="1" parent="1" source="Ppeax3_3dTHggxRKk9m_-135" target="Ppeax3_3dTHggxRKk9m_-138">
          <mxGeometry relative="1" as="geometry">
            <mxPoint x="670" y="2423" as="targetPoint" />
          </mxGeometry>
        </mxCell>
        <mxCell id="Ppeax3_3dTHggxRKk9m_-135" value="&lt;font style=&quot;font-size: 19px&quot; color=&quot;#990099&quot;&gt;Авторизація у системі&lt;/font&gt;" style="shape=ext;rounded=1;html=1;whiteSpace=wrap;fontSize=16;verticalAlign=top;" vertex="1" parent="1">
          <mxGeometry x="460" y="2384.38" width="138.47" height="77.25" as="geometry" />
        </mxCell>
        <mxCell id="Ppeax3_3dTHggxRKk9m_-136" style="edgeStyle=orthogonalEdgeStyle;rounded=0;orthogonalLoop=1;jettySize=auto;html=1;" edge="1" parent="1" source="Ppeax3_3dTHggxRKk9m_-138" target="Ppeax3_3dTHggxRKk9m_-85">
          <mxGeometry relative="1" as="geometry" />
        </mxCell>
        <mxCell id="Ppeax3_3dTHggxRKk9m_-137" style="edgeStyle=orthogonalEdgeStyle;rounded=0;orthogonalLoop=1;jettySize=auto;html=1;" edge="1" parent="1" source="Ppeax3_3dTHggxRKk9m_-138">
          <mxGeometry relative="1" as="geometry">
            <mxPoint x="765" y="2550" as="targetPoint" />
          </mxGeometry>
        </mxCell>
        <mxCell id="Ppeax3_3dTHggxRKk9m_-138" value="" style="shape=mxgraph.bpmn.shape;html=1;verticalLabelPosition=bottom;labelBackgroundColor=#ffffff;verticalAlign=top;align=center;perimeter=rhombusPerimeter;background=gateway;outlineConnect=0;outline=none;symbol=exclusiveGw;fontSize=16;" vertex="1" parent="1">
          <mxGeometry x="740" y="2398" width="50" height="50" as="geometry" />
        </mxCell>
        <mxCell id="Ppeax3_3dTHggxRKk9m_-139" value="Чи була спроба авторизації у системі успішною?" style="text;html=1;align=center;verticalAlign=middle;whiteSpace=wrap;rounded=0;fontSize=19;rotation=0;" vertex="1" parent="1">
          <mxGeometry x="598.47" y="2318" width="170" height="80" as="geometry" />
        </mxCell>
        <mxCell id="Ppeax3_3dTHggxRKk9m_-140" value="так" style="text;html=1;strokeColor=none;fillColor=none;align=center;verticalAlign=middle;whiteSpace=wrap;rounded=0;fontSize=19;fontColor=#990099;rotation=0;" vertex="1" parent="1">
          <mxGeometry x="860" y="2388" width="40" height="20" as="geometry" />
        </mxCell>
        <mxCell id="Ppeax3_3dTHggxRKk9m_-141" value="" style="shape=mxgraph.bpmn.shape;html=1;verticalLabelPosition=bottom;labelBackgroundColor=#ffffff;verticalAlign=top;align=center;perimeter=ellipsePerimeter;outlineConnect=0;outline=standard;symbol=general;fontSize=16;strokeWidth=5;" vertex="1" parent="1">
          <mxGeometry x="740" y="2548" width="50" height="50" as="geometry" />
        </mxCell>
        <mxCell id="Ppeax3_3dTHggxRKk9m_-142" value="ні" style="text;html=1;strokeColor=none;fillColor=none;align=center;verticalAlign=middle;whiteSpace=wrap;rounded=0;fontSize=19;fontColor=#990099;rotation=0;" vertex="1" parent="1">
          <mxGeometry x="720" y="2490" width="40" height="20" as="geometry" />
        </mxCell>
        <mxCell id="Ppeax3_3dTHggxRKk9m_-143" value="так" style="text;html=1;strokeColor=none;fillColor=none;align=center;verticalAlign=middle;whiteSpace=wrap;rounded=0;fontSize=19;fontColor=#990099;rotation=0;" vertex="1" parent="1">
          <mxGeometry x="1040" y="3038" width="40" height="20" as="geometry" />
        </mxCell>
        <mxCell id="Ppeax3_3dTHggxRKk9m_-144" value="Кількість доступних адрес у списку файла &amp;lt;85" style="text;html=1;align=center;verticalAlign=middle;whiteSpace=wrap;rounded=0;fontSize=19;rotation=0;" vertex="1" parent="1">
          <mxGeometry x="870" y="3020" width="160" height="80" as="geometry" />
        </mxCell>
        <mxCell id="Ppeax3_3dTHggxRKk9m_-145" style="edgeStyle=orthogonalEdgeStyle;rounded=0;orthogonalLoop=1;jettySize=auto;html=1;entryX=0;entryY=0.5;entryDx=0;entryDy=0;strokeWidth=2;" edge="1" parent="1" source="Ppeax3_3dTHggxRKk9m_-146" target="Ppeax3_3dTHggxRKk9m_-106">
          <mxGeometry relative="1" as="geometry">
            <mxPoint x="800" y="3470" as="targetPoint" />
            <Array as="points">
              <mxPoint x="880" y="3125" />
              <mxPoint x="880" y="3375" />
            </Array>
          </mxGeometry>
        </mxCell>
        <mxCell id="Ppeax3_3dTHggxRKk9m_-146" value="" style="shape=mxgraph.bpmn.shape;html=1;verticalLabelPosition=bottom;labelBackgroundColor=#ffffff;verticalAlign=top;align=center;perimeter=rhombusPerimeter;background=gateway;outlineConnect=0;outline=none;symbol=exclusiveGw;fontSize=16;" vertex="1" parent="1">
          <mxGeometry x="1014.24" y="3100" width="50" height="50" as="geometry" />
        </mxCell>
        <mxCell id="Ppeax3_3dTHggxRKk9m_-147" value="" style="endArrow=classic;endFill=1;endSize=6;html=1;strokeColor=#000000;strokeWidth=2;fontSize=19;fontColor=#990099;exitX=0.5;exitY=1;exitDx=0;exitDy=0;entryX=0.5;entryY=0;entryDx=0;entryDy=0;" edge="1" parent="1" source="Ppeax3_3dTHggxRKk9m_-100" target="Ppeax3_3dTHggxRKk9m_-146">
          <mxGeometry width="100" relative="1" as="geometry">
            <mxPoint x="1039.2399999999998" y="3021" as="sourcePoint" />
            <mxPoint x="1039.2400000000002" y="3270" as="targetPoint" />
          </mxGeometry>
        </mxCell>
        <mxCell id="Ppeax3_3dTHggxRKk9m_-148" value="" style="points=[[0.25,0,0],[0.5,0,0],[0.75,0,0],[1,0.25,0],[1,0.5,0],[1,0.75,0],[0.75,1,0],[0.5,1,0],[0.25,1,0],[0,0.75,0],[0,0.5,0],[0,0.25,0]];shape=mxgraph.bpmn.task;whiteSpace=wrap;rectStyle=rounded;size=10;taskMarker=abstract;isLoopSub=1;glass=0;strokeWidth=1;fillColor=none;" vertex="1" parent="1">
          <mxGeometry x="460" y="2385.19" width="138.47" height="75.62" as="geometry" />
        </mxCell>
        <mxCell id="Ppeax3_3dTHggxRKk9m_-149" value="так" style="text;html=1;strokeColor=none;fillColor=none;align=center;verticalAlign=middle;whiteSpace=wrap;rounded=0;fontSize=19;fontColor=#990099;rotation=0;" vertex="1" parent="1">
          <mxGeometry x="1040" y="3160" width="40" height="20" as="geometry" />
        </mxCell>
        <mxCell id="Ppeax3_3dTHggxRKk9m_-150" value="ні" style="text;html=1;strokeColor=none;fillColor=none;align=center;verticalAlign=middle;whiteSpace=wrap;rounded=0;fontSize=19;fontColor=#990099;rotation=0;" vertex="1" parent="1">
          <mxGeometry x="930" y="3130" width="40" height="20" as="geometry" />
        </mxCell>
        <mxCell id="Ppeax3_3dTHggxRKk9m_-151" value="&lt;font style=&quot;font-size: 25px&quot;&gt;ПП &quot;Переліт&quot;&lt;/font&gt;" style="text;html=1;strokeColor=none;fillColor=none;align=center;verticalAlign=middle;whiteSpace=wrap;rounded=0;fontSize=19;fontColor=#990099;" vertex="1" parent="1">
          <mxGeometry x="917.67" y="2280" width="210" height="20" as="geometry" />
        </mxCell>
      </root>
    </mxGraphModel>
  </diagram>
  <diagram id="y2RDZp_ShaOLXRFRiYr4" name="Страница — 2">
    <mxGraphModel dx="1191" dy="-561" grid="1" gridSize="10" guides="1" tooltips="1" connect="1" arrows="1" fold="1" page="1" pageScale="1" pageWidth="827" pageHeight="1169" math="0" shadow="0">
      <root>
        <mxCell id="0" />
        <mxCell id="1" parent="0" />
        <mxCell id="8rOIlivN3lETVipQeVfJ-1" value="" style="shape=mxgraph.bpmn.shape;html=1;verticalLabelPosition=bottom;labelBackgroundColor=#ffffff;verticalAlign=top;align=center;perimeter=ellipsePerimeter;outlineConnect=0;outline=standard;symbol=general;fontSize=16;" vertex="1" parent="1">
          <mxGeometry x="531.25" y="1730" width="50" height="50" as="geometry" />
        </mxCell>
        <mxCell id="8rOIlivN3lETVipQeVfJ-2" value="" style="endArrow=classic;html=1;fontSize=19;fontColor=#990099;exitX=1;exitY=0.5;exitDx=0;exitDy=0;entryX=0;entryY=0.5;entryDx=0;entryDy=0;strokeWidth=2;" edge="1" parent="1" source="8rOIlivN3lETVipQeVfJ-1" target="8rOIlivN3lETVipQeVfJ-3">
          <mxGeometry width="50" height="50" relative="1" as="geometry">
            <mxPoint x="651.25" y="1980" as="sourcePoint" />
            <mxPoint x="761.25" y="1755" as="targetPoint" />
          </mxGeometry>
        </mxCell>
        <mxCell id="8rOIlivN3lETVipQeVfJ-3" value="&lt;font style=&quot;font-size: 19px;&quot;&gt;Запуск програми&lt;/font&gt;" style="shape=ext;rounded=1;html=1;whiteSpace=wrap;fontSize=19;fontColor=#000000;" vertex="1" parent="1">
          <mxGeometry x="701.25" y="1715" width="138.47" height="80" as="geometry" />
        </mxCell>
        <mxCell id="8rOIlivN3lETVipQeVfJ-4" value="&lt;font style=&quot;font-size: 25px&quot;&gt;ПП &quot;Житла&quot;&lt;/font&gt;" style="text;html=1;strokeColor=none;fillColor=none;align=center;verticalAlign=middle;whiteSpace=wrap;rounded=0;fontSize=19;fontColor=#000000;" vertex="1" parent="1">
          <mxGeometry x="670" y="1680" width="210" height="20" as="geometry" />
        </mxCell>
        <mxCell id="8rOIlivN3lETVipQeVfJ-5" value="" style="endArrow=classic;html=1;fontSize=19;fontColor=#990099;entryX=1;entryY=0.5;entryDx=0;entryDy=0;dashed=1;strokeWidth=2;exitX=0;exitY=0.5;exitDx=0;exitDy=0;" edge="1" parent="1" source="8rOIlivN3lETVipQeVfJ-6">
          <mxGeometry width="50" height="50" relative="1" as="geometry">
            <mxPoint x="932.02" y="1886" as="sourcePoint" />
            <mxPoint x="830.4900000000002" y="1886" as="targetPoint" />
          </mxGeometry>
        </mxCell>
        <mxCell id="8rOIlivN3lETVipQeVfJ-6" value="&amp;nbsp;Сховище&amp;nbsp;&lt;br&gt;&amp;nbsp;даних" style="shape=datastore;whiteSpace=wrap;html=1;fontSize=19;fontColor=#000000;align=center;" vertex="1" parent="1">
          <mxGeometry x="892.02" y="1851" width="87.67" height="70" as="geometry" />
        </mxCell>
        <mxCell id="8rOIlivN3lETVipQeVfJ-7" style="edgeStyle=orthogonalEdgeStyle;rounded=0;orthogonalLoop=1;jettySize=auto;html=1;exitX=0;exitY=0.5;exitDx=0;exitDy=0;strokeColor=#000000;strokeWidth=2;fontSize=19;fontColor=#990099;entryX=0.5;entryY=0;entryDx=0;entryDy=0;" edge="1" parent="1" source="8rOIlivN3lETVipQeVfJ-8" target="8rOIlivN3lETVipQeVfJ-17">
          <mxGeometry relative="1" as="geometry">
            <mxPoint x="769.2399999999998" y="2573" as="targetPoint" />
            <Array as="points">
              <mxPoint x="631" y="2065" />
              <mxPoint x="631" y="2573" />
              <mxPoint x="769" y="2573" />
            </Array>
          </mxGeometry>
        </mxCell>
        <mxCell id="8rOIlivN3lETVipQeVfJ-8" value="" style="shape=mxgraph.bpmn.shape;html=1;verticalLabelPosition=bottom;labelBackgroundColor=#ffffff;verticalAlign=top;align=center;perimeter=rhombusPerimeter;background=gateway;outlineConnect=0;outline=none;symbol=exclusiveGw;fontSize=16;" vertex="1" parent="1">
          <mxGeometry x="745.49" y="2040" width="50" height="50" as="geometry" />
        </mxCell>
        <mxCell id="8rOIlivN3lETVipQeVfJ-9" value="Бачить потрібні адреси?" style="text;html=1;align=center;verticalAlign=middle;whiteSpace=wrap;rounded=0;fontSize=19;rotation=0;" vertex="1" parent="1">
          <mxGeometry x="600" y="1930" width="160" height="80" as="geometry" />
        </mxCell>
        <mxCell id="8rOIlivN3lETVipQeVfJ-10" value="" style="endArrow=classic;html=1;strokeWidth=2;fontSize=19;fontColor=#990099;exitX=0.5;exitY=1;exitDx=0;exitDy=0;entryX=0.5;entryY=0;entryDx=0;entryDy=0;" edge="1" parent="1" source="8rOIlivN3lETVipQeVfJ-3" target="8rOIlivN3lETVipQeVfJ-32">
          <mxGeometry width="50" height="50" relative="1" as="geometry">
            <mxPoint x="891.25" y="2156" as="sourcePoint" />
            <mxPoint x="770.25" y="1866" as="targetPoint" />
          </mxGeometry>
        </mxCell>
        <mxCell id="8rOIlivN3lETVipQeVfJ-11" value="" style="endArrow=block;endFill=1;endSize=6;html=1;strokeColor=#000000;strokeWidth=2;fontSize=19;fontColor=#990099;exitX=0.5;exitY=1;exitDx=0;exitDy=0;entryX=0.5;entryY=0;entryDx=0;entryDy=0;" edge="1" parent="1" source="8rOIlivN3lETVipQeVfJ-8" target="8rOIlivN3lETVipQeVfJ-12">
          <mxGeometry width="100" relative="1" as="geometry">
            <mxPoint x="761.25" y="2140" as="sourcePoint" />
            <mxPoint x="770.25" y="2150" as="targetPoint" />
          </mxGeometry>
        </mxCell>
        <mxCell id="8rOIlivN3lETVipQeVfJ-12" value="&lt;font style=&quot;font-size: 19px&quot;&gt;Фільтрація адрес за запитом користувача&lt;br&gt;&lt;/font&gt;" style="shape=ext;rounded=1;html=1;whiteSpace=wrap;fontSize=16;fontColor=#000000;" vertex="1" parent="1">
          <mxGeometry x="682.42" y="2160" width="176.14" height="70" as="geometry" />
        </mxCell>
        <mxCell id="8rOIlivN3lETVipQeVfJ-13" value="ні" style="text;html=1;strokeColor=none;fillColor=none;align=center;verticalAlign=middle;whiteSpace=wrap;rounded=0;fontSize=19;fontColor=#000000;rotation=0;" vertex="1" parent="1">
          <mxGeometry x="787" y="2110" width="40" height="20" as="geometry" />
        </mxCell>
        <mxCell id="8rOIlivN3lETVipQeVfJ-14" value="Існують прізвище/ житлова площа&amp;nbsp;&lt;span style=&quot;background-color: initial;&quot;&gt;більша за&amp;nbsp;&lt;br&gt;&lt;/span&gt;&lt;span style=&quot;background-color: initial;&quot;&gt;введену в форму&lt;/span&gt;?" style="text;html=1;align=center;verticalAlign=middle;whiteSpace=wrap;rounded=0;fontSize=19;rotation=0;" vertex="1" parent="1">
          <mxGeometry x="795.49" y="2782" width="234.51" height="80" as="geometry" />
        </mxCell>
        <mxCell id="8rOIlivN3lETVipQeVfJ-15" value="" style="endArrow=classic;html=1;strokeColor=#000000;strokeWidth=2;fontSize=19;fontColor=#990099;exitX=0.5;exitY=1;exitDx=0;exitDy=0;" edge="1" parent="1" source="8rOIlivN3lETVipQeVfJ-36">
          <mxGeometry width="50" height="50" relative="1" as="geometry">
            <mxPoint x="769" y="2570" as="sourcePoint" />
            <mxPoint x="769" y="2690" as="targetPoint" />
          </mxGeometry>
        </mxCell>
        <mxCell id="8rOIlivN3lETVipQeVfJ-16" style="edgeStyle=orthogonalEdgeStyle;rounded=0;orthogonalLoop=1;jettySize=auto;html=1;exitX=0;exitY=0.5;exitDx=0;exitDy=0;entryX=1;entryY=0.5;entryDx=0;entryDy=0;strokeColor=#000000;strokeWidth=2;fontSize=19;fontColor=#990099;" edge="1" parent="1" source="8rOIlivN3lETVipQeVfJ-17" target="8rOIlivN3lETVipQeVfJ-19">
          <mxGeometry relative="1" as="geometry" />
        </mxCell>
        <mxCell id="8rOIlivN3lETVipQeVfJ-17" value="" style="shape=mxgraph.bpmn.shape;html=1;verticalLabelPosition=bottom;labelBackgroundColor=#ffffff;verticalAlign=top;align=center;perimeter=rhombusPerimeter;background=gateway;outlineConnect=0;outline=none;symbol=exclusiveGw;fontSize=16;" vertex="1" parent="1">
          <mxGeometry x="744.24" y="2797" width="50" height="50" as="geometry" />
        </mxCell>
        <mxCell id="8rOIlivN3lETVipQeVfJ-18" style="edgeStyle=orthogonalEdgeStyle;rounded=0;orthogonalLoop=1;jettySize=auto;html=1;exitX=0.5;exitY=1;exitDx=0;exitDy=0;entryX=0.5;entryY=0;entryDx=0;entryDy=0;strokeColor=#000000;strokeWidth=2;fontSize=19;fontColor=#990099;" edge="1" parent="1" source="8rOIlivN3lETVipQeVfJ-19" target="8rOIlivN3lETVipQeVfJ-26">
          <mxGeometry relative="1" as="geometry" />
        </mxCell>
        <mxCell id="8rOIlivN3lETVipQeVfJ-19" value="&lt;font style=&quot;font-size: 19px&quot;&gt;Формування списку адрес за&amp;nbsp;&lt;/font&gt;&lt;div&gt;&lt;font style=&quot;font-size: 19px&quot;&gt;прізвищем/визначення&amp;nbsp;&lt;/font&gt;&lt;/div&gt;&lt;div&gt;&lt;font style=&quot;font-size: 19px&quot;&gt;кількості сімей, що мають&amp;nbsp;&lt;/font&gt;&lt;/div&gt;&lt;div&gt;&lt;font style=&quot;font-size: 19px&quot;&gt;житлову площу більшу за&amp;nbsp;&lt;/font&gt;&lt;/div&gt;&lt;div&gt;&lt;font style=&quot;font-size: 19px&quot;&gt;введену в форму&lt;/font&gt;&lt;/div&gt;" style="shape=ext;rounded=1;html=1;whiteSpace=wrap;fontSize=16;fontColor=#000000;" vertex="1" parent="1">
          <mxGeometry x="420" y="2757" width="270" height="130" as="geometry" />
        </mxCell>
        <mxCell id="8rOIlivN3lETVipQeVfJ-20" value="так" style="text;html=1;strokeColor=none;fillColor=none;align=center;verticalAlign=middle;whiteSpace=wrap;rounded=0;fontSize=19;fontColor=#000000;rotation=0;" vertex="1" parent="1">
          <mxGeometry x="700" y="2797" width="40" height="20" as="geometry" />
        </mxCell>
        <mxCell id="8rOIlivN3lETVipQeVfJ-21" value="" style="endArrow=classic;html=1;strokeColor=#000000;strokeWidth=2;fontSize=19;fontColor=#990099;exitX=0.5;exitY=1;exitDx=0;exitDy=0;entryX=0.5;entryY=0;entryDx=0;entryDy=0;" edge="1" parent="1" source="8rOIlivN3lETVipQeVfJ-17" target="8rOIlivN3lETVipQeVfJ-23">
          <mxGeometry width="50" height="50" relative="1" as="geometry">
            <mxPoint x="700" y="2927" as="sourcePoint" />
            <mxPoint x="769" y="2917" as="targetPoint" />
          </mxGeometry>
        </mxCell>
        <mxCell id="8rOIlivN3lETVipQeVfJ-22" value="ні" style="text;html=1;strokeColor=none;fillColor=none;align=center;verticalAlign=middle;whiteSpace=wrap;rounded=0;fontSize=19;fontColor=#000000;rotation=0;" vertex="1" parent="1">
          <mxGeometry x="765" y="2897" width="40" height="20" as="geometry" />
        </mxCell>
        <mxCell id="8rOIlivN3lETVipQeVfJ-23" value="" style="shape=mxgraph.bpmn.shape;html=1;verticalLabelPosition=bottom;labelBackgroundColor=#ffffff;verticalAlign=top;align=center;perimeter=ellipsePerimeter;outlineConnect=0;outline=standard;symbol=general;fontSize=16;" vertex="1" parent="1">
          <mxGeometry x="744.24" y="2987" width="50" height="50" as="geometry" />
        </mxCell>
        <mxCell id="8rOIlivN3lETVipQeVfJ-24" style="edgeStyle=orthogonalEdgeStyle;rounded=0;orthogonalLoop=1;jettySize=auto;html=1;entryX=0;entryY=0.5;entryDx=0;entryDy=0;strokeColor=#000000;strokeWidth=2;fontSize=19;fontColor=#990099;" edge="1" parent="1" source="8rOIlivN3lETVipQeVfJ-26" target="8rOIlivN3lETVipQeVfJ-23">
          <mxGeometry relative="1" as="geometry" />
        </mxCell>
        <mxCell id="8rOIlivN3lETVipQeVfJ-25" style="edgeStyle=orthogonalEdgeStyle;rounded=0;orthogonalLoop=1;jettySize=auto;html=1;exitX=0.5;exitY=1;exitDx=0;exitDy=0;entryX=0;entryY=0.5;entryDx=0;entryDy=0;strokeColor=#000000;strokeWidth=2;fontSize=19;fontColor=#990099;" edge="1" parent="1" source="8rOIlivN3lETVipQeVfJ-26" target="8rOIlivN3lETVipQeVfJ-30">
          <mxGeometry relative="1" as="geometry" />
        </mxCell>
        <mxCell id="8rOIlivN3lETVipQeVfJ-26" value="" style="shape=mxgraph.bpmn.shape;html=1;verticalLabelPosition=bottom;labelBackgroundColor=#ffffff;verticalAlign=top;align=center;perimeter=rhombusPerimeter;background=gateway;outlineConnect=0;outline=none;symbol=exclusiveGw;fontSize=16;" vertex="1" parent="1">
          <mxGeometry x="530" y="2987" width="50" height="50" as="geometry" />
        </mxCell>
        <mxCell id="8rOIlivN3lETVipQeVfJ-27" value="Збереження отриманих результатів?" style="text;html=1;align=center;verticalAlign=middle;whiteSpace=wrap;rounded=0;fontSize=19;rotation=0;" vertex="1" parent="1">
          <mxGeometry x="550" y="2897" width="160" height="80" as="geometry" />
        </mxCell>
        <mxCell id="8rOIlivN3lETVipQeVfJ-28" value="ні" style="text;html=1;strokeColor=none;fillColor=none;align=center;verticalAlign=middle;whiteSpace=wrap;rounded=0;fontSize=19;fontColor=#000000;rotation=0;" vertex="1" parent="1">
          <mxGeometry x="640" y="2987" width="40" height="20" as="geometry" />
        </mxCell>
        <mxCell id="8rOIlivN3lETVipQeVfJ-29" style="edgeStyle=orthogonalEdgeStyle;rounded=0;orthogonalLoop=1;jettySize=auto;html=1;exitX=0.5;exitY=0;exitDx=0;exitDy=0;entryX=1;entryY=0.5;entryDx=0;entryDy=0;strokeColor=#000000;strokeWidth=2;fontSize=19;fontColor=#990099;" edge="1" parent="1" source="8rOIlivN3lETVipQeVfJ-30" target="8rOIlivN3lETVipQeVfJ-23">
          <mxGeometry relative="1" as="geometry" />
        </mxCell>
        <mxCell id="8rOIlivN3lETVipQeVfJ-30" value="&lt;font&gt;&lt;span style=&quot;font-size: 19px&quot;&gt;Збереження даних&lt;br&gt;в MS Word&lt;br&gt;&lt;/span&gt;&lt;/font&gt;" style="shape=ext;rounded=1;html=1;whiteSpace=wrap;fontSize=16;fontColor=#000000;" vertex="1" parent="1">
          <mxGeometry x="880" y="3037" width="176.14" height="70" as="geometry" />
        </mxCell>
        <mxCell id="8rOIlivN3lETVipQeVfJ-31" value="так" style="text;html=1;strokeColor=none;fillColor=none;align=center;verticalAlign=middle;whiteSpace=wrap;rounded=0;fontSize=19;fontColor=#000000;rotation=0;" vertex="1" parent="1">
          <mxGeometry x="647.67" y="3047" width="40" height="20" as="geometry" />
        </mxCell>
        <mxCell id="8rOIlivN3lETVipQeVfJ-32" value="Перегляд усіх адрес" style="rounded=1;whiteSpace=wrap;html=1;fontStyle=0;fontSize=16;" vertex="1" parent="1">
          <mxGeometry x="710.49" y="1856" width="120" height="60" as="geometry" />
        </mxCell>
        <mxCell id="8rOIlivN3lETVipQeVfJ-33" value="" style="endArrow=classic;html=1;strokeWidth=2;fontSize=19;fontColor=#990099;exitX=0.5;exitY=1;exitDx=0;exitDy=0;entryX=0.5;entryY=0;entryDx=0;entryDy=0;" edge="1" parent="1" source="8rOIlivN3lETVipQeVfJ-32" target="8rOIlivN3lETVipQeVfJ-8">
          <mxGeometry width="50" height="50" relative="1" as="geometry">
            <mxPoint x="780.4850000000006" y="1749" as="sourcePoint" />
            <mxPoint x="780.4899999999998" y="1810" as="targetPoint" />
          </mxGeometry>
        </mxCell>
        <mxCell id="8rOIlivN3lETVipQeVfJ-34" value="" style="endArrow=classic;html=1;strokeWidth=2;fontSize=19;fontColor=#990099;entryX=0.5;entryY=0;entryDx=0;entryDy=0;" edge="1" parent="1" target="8rOIlivN3lETVipQeVfJ-36">
          <mxGeometry width="50" height="50" relative="1" as="geometry">
            <mxPoint x="769" y="2230" as="sourcePoint" />
            <mxPoint x="769.2399999999998" y="2290" as="targetPoint" />
          </mxGeometry>
        </mxCell>
        <mxCell id="8rOIlivN3lETVipQeVfJ-35" value="ні" style="text;html=1;strokeColor=none;fillColor=none;align=center;verticalAlign=middle;whiteSpace=wrap;rounded=0;fontSize=19;fontColor=#000000;rotation=0;" vertex="1" parent="1">
          <mxGeometry x="725" y="2420" width="40" height="20" as="geometry" />
        </mxCell>
        <mxCell id="8rOIlivN3lETVipQeVfJ-36" value="" style="shape=mxgraph.bpmn.shape;html=1;verticalLabelPosition=bottom;labelBackgroundColor=#ffffff;verticalAlign=top;align=center;perimeter=rhombusPerimeter;background=gateway;outlineConnect=0;outline=none;symbol=exclusiveGw;fontSize=16;" vertex="1" parent="1">
          <mxGeometry x="744.24" y="2320" width="50" height="50" as="geometry" />
        </mxCell>
        <mxCell id="8rOIlivN3lETVipQeVfJ-37" value="&lt;span style=&quot;color: rgb(0 , 0 , 0) ; font-family: &amp;quot;helvetica&amp;quot; ; font-size: 19px ; font-style: normal ; font-weight: 400 ; letter-spacing: normal ; text-align: center ; text-indent: 0px ; text-transform: none ; word-spacing: 0px ; background-color: rgb(248 , 249 , 250) ; display: inline ; float: none&quot;&gt;Адреси відсутні?&lt;/span&gt;" style="text;whiteSpace=wrap;html=1;fontSize=15;" vertex="1" parent="1">
          <mxGeometry x="780" y="2260" width="170" height="30" as="geometry" />
        </mxCell>
        <mxCell id="8rOIlivN3lETVipQeVfJ-38" value="" style="endArrow=classic;html=1;strokeWidth=2;fontSize=19;fontColor=#990099;exitX=1;exitY=0.5;exitDx=0;exitDy=0;edgeStyle=orthogonalEdgeStyle;entryX=1;entryY=0.5;entryDx=0;entryDy=0;" edge="1" parent="1" source="8rOIlivN3lETVipQeVfJ-36" target="8rOIlivN3lETVipQeVfJ-23">
          <mxGeometry width="50" height="50" relative="1" as="geometry">
            <mxPoint x="779" y="2240" as="sourcePoint" />
            <mxPoint x="794" y="3010" as="targetPoint" />
            <Array as="points">
              <mxPoint x="1030" y="2345" />
              <mxPoint x="1030" y="2960" />
              <mxPoint x="794" y="2960" />
            </Array>
          </mxGeometry>
        </mxCell>
        <mxCell id="8rOIlivN3lETVipQeVfJ-39" value="так" style="text;html=1;strokeColor=none;fillColor=none;align=center;verticalAlign=middle;whiteSpace=wrap;rounded=0;fontSize=19;fontColor=#000000;rotation=0;" vertex="1" parent="1">
          <mxGeometry x="680" y="2030" width="40" height="20" as="geometry" />
        </mxCell>
        <mxCell id="8rOIlivN3lETVipQeVfJ-40" value="так" style="text;html=1;strokeColor=none;fillColor=none;align=center;verticalAlign=middle;whiteSpace=wrap;rounded=0;fontSize=19;fontColor=#000000;rotation=0;" vertex="1" parent="1">
          <mxGeometry x="852.02" y="2310" width="40" height="20" as="geometry" />
        </mxCell>
        <mxCell id="8rOIlivN3lETVipQeVfJ-41" value="Перегляд знайдених адрес" style="rounded=1;whiteSpace=wrap;html=1;fontStyle=0;fontSize=16;" vertex="1" parent="1">
          <mxGeometry x="709.24" y="2690" width="120" height="60" as="geometry" />
        </mxCell>
        <mxCell id="8rOIlivN3lETVipQeVfJ-42" style="edgeStyle=orthogonalEdgeStyle;rounded=0;orthogonalLoop=1;jettySize=auto;html=1;exitX=0.5;exitY=1;exitDx=0;exitDy=0;strokeWidth=2;fontSize=19;fontColor=#990099;dashed=1;strokeColor=#000000;entryX=0.5;entryY=0;entryDx=0;entryDy=0;entryPerimeter=0;" edge="1" parent="1" target="8rOIlivN3lETVipQeVfJ-43">
          <mxGeometry relative="1" as="geometry">
            <mxPoint x="968.6941176470591" y="3187" as="targetPoint" />
            <mxPoint x="968.47" y="3107" as="sourcePoint" />
          </mxGeometry>
        </mxCell>
        <mxCell id="8rOIlivN3lETVipQeVfJ-43" value="" style="shape=note;whiteSpace=wrap;size=16;html=1;dropTarget=0;strokeColor=#000000;strokeWidth=2;fontSize=19;fontColor=#000000;" vertex="1" parent="1">
          <mxGeometry x="948.07" y="3167" width="40" height="60" as="geometry" />
        </mxCell>
        <mxCell id="8rOIlivN3lETVipQeVfJ-44" value="" style="html=1;shape=singleArrow;arrowWidth=0.4;arrowSize=0.4;outlineConnect=0;strokeColor=#000000;" vertex="1" parent="8rOIlivN3lETVipQeVfJ-43">
          <mxGeometry width="14" height="14" relative="1" as="geometry">
            <mxPoint x="2" y="2" as="offset" />
          </mxGeometry>
        </mxCell>
        <mxCell id="8rOIlivN3lETVipQeVfJ-45" value="" style="html=1;whiteSpace=wrap;shape=parallelMarker;outlineConnect=0;" vertex="1" parent="8rOIlivN3lETVipQeVfJ-43">
          <mxGeometry x="0.5" y="1" width="14" height="14" relative="1" as="geometry">
            <mxPoint x="-7" y="-14" as="offset" />
          </mxGeometry>
        </mxCell>
        <mxCell id="8rOIlivN3lETVipQeVfJ-46" value="Клієнт" style="text;html=1;align=center;verticalAlign=middle;whiteSpace=wrap;rounded=0;fontSize=19;rotation=0;" vertex="1" parent="1">
          <mxGeometry x="508.75" y="1690" width="95" height="40" as="geometry" />
        </mxCell>
      </root>
    </mxGraphModel>
  </diagram>
</mxfile>
